<svg width="96" height="96" viewBox="0 0 96 96" fill="none" xmlns="http://www.w3.org/2000/svg">
<g clip-path="url(#clip0_1_2)">
<rect width="96" height="96" fill="white"/>
<circle cx="48" cy="48" r="48" fill="#5023ff"/>
<path d="M66.3091 33.0556V33.0575C66.3091 34.9135 64.8041 36.4167 62.95 36.4167C61.0958 36.4167 59.5908 34.9117 59.5908 33.0575C59.5908 31.2015 61.0958 29.6984 62.95 29.6984C64.8041 29.7002 66.3072 31.2015 66.3091 33.0556ZM48.0009 57.3352C42.8455 57.3352 38.6667 53.1563 38.6667 48.0009C38.6667 42.8455 42.8455 38.6667 48.0009 38.6667C53.1563 38.6667 57.3352 42.8455 57.3352 48.0009C57.3352 53.1545 53.1582 57.3333 48.0047 57.3333H48.0028L48.0009 57.3352ZM48.0009 33.6233C40.0596 33.6233 33.6233 40.0615 33.6233 48.0009C33.6233 55.9404 40.0615 62.3786 48.0009 62.3786C55.9422 62.3786 62.3786 55.9404 62.3786 48.0009V47.9991C62.3786 40.0596 55.9422 33.6214 48.0009 33.6214H47.9991L48.0009 33.6233ZM48.0009 25.0415C55.4754 25.0415 56.3661 25.0789 59.3182 25.2077C61.191 25.2301 62.9724 25.5849 64.6211 26.2123L64.5147 26.1768C66.9682 27.1328 68.8728 29.0374 69.8083 31.4274L69.8307 31.4909C70.4207 33.0332 70.7718 34.8164 70.7942 36.6781V36.6874C70.9267 39.6414 70.9566 40.5283 70.9566 48.0047C70.9566 55.481 70.9211 56.3698 70.7848 59.3219C70.7494 61.1966 70.3927 62.978 69.7672 64.6267L69.8027 64.5184C69.3209 65.7807 68.6076 66.8562 67.7058 67.7413L67.7039 67.7431C66.8207 68.6469 65.7452 69.3601 64.5446 69.8139L64.4848 69.8344C62.9369 70.4245 61.1481 70.7755 59.279 70.7979H59.2696C56.297 70.9305 55.4213 70.9604 47.9318 70.9604C40.4387 70.9604 39.5648 70.9249 36.594 70.7886C34.7119 70.7531 32.9231 70.3965 31.2668 69.7709L31.377 69.8064C30.1148 69.3321 29.0392 68.617 28.1616 67.7114L28.1598 67.7095C27.2467 66.8319 26.5297 65.7545 26.0797 64.5483L26.061 64.4904C25.4728 62.9443 25.1162 61.1574 25.0807 59.2902V59.2752C24.9762 56.3344 24.9388 55.4269 24.9388 47.9729C24.9388 40.5152 24.9762 39.6059 25.0807 36.6295C25.1162 34.7492 25.471 32.9623 26.0965 31.3079L26.061 31.4181C26.5222 30.1502 27.2411 29.071 28.1579 28.199L28.1616 28.1953C29.0355 27.2766 30.1129 26.5614 31.321 26.1189L31.3789 26.1002C32.9156 25.5065 34.6913 25.1498 36.5474 25.1181H36.5604C39.5349 25.0135 40.4107 24.978 47.8982 24.978L48.0009 25.0415ZM48.0009 20C40.3939 20 39.4453 20.0355 36.4577 20.1681C34.0023 20.2203 31.6739 20.6946 29.5191 21.5181L29.661 21.4714C27.7191 22.2127 26.0648 23.3125 24.7017 24.6979L24.6998 24.6998C23.3087 26.0629 22.2108 27.7191 21.5013 29.5677L21.4695 29.661C20.6927 31.6739 20.2185 34.0042 20.1681 36.4353V36.4577C20.028 39.4453 20 40.3939 20 48.0009C20 55.608 20.0355 56.5566 20.1681 59.5441C20.2203 61.9995 20.6946 64.328 21.5181 66.4827L21.4714 66.3408C22.9577 70.1145 25.8874 73.0442 29.5639 74.4969L29.661 74.5305C31.6739 75.3054 34.0042 75.7797 36.4353 75.8319H36.4577C39.4453 75.972 40.3939 76 48.0009 76C55.608 76 56.5566 75.9645 59.5441 75.8319C61.9995 75.7778 64.328 75.3054 66.4827 74.4819L66.3408 74.5305C70.1145 73.0442 73.0442 70.1145 74.4969 66.4379L74.5305 66.3408C75.3073 64.328 75.7797 61.9977 75.8319 59.5665V59.5441C75.972 56.5566 76 55.608 76 48.0009C76 40.3939 75.9645 39.4453 75.8319 36.4577C75.7778 34.0023 75.3054 31.6739 74.4819 29.5191L74.5305 29.661C73.7873 27.7191 72.6894 26.0648 71.3021 24.7017L71.3002 24.6998C69.9371 23.3087 68.2809 22.2108 66.4323 21.5013L66.339 21.4695C64.3261 20.6927 61.9958 20.2185 59.5647 20.1681H59.5423C56.5547 20.028 55.6061 20 47.9991 20H48.0009Z" fill="#FCFCFE"/>
</g>
<defs>
<clipPath id="clip0_1_2">
<rect width="96" height="96" fill="white"/>
</clipPath>
</defs>
</svg>
