<svg width="96" height="96" viewBox="0 0 96 96" fill="none" xmlns="http://www.w3.org/2000/svg">
<g clip-path="url(#clip0_1_2)">
<rect width="96" height="96" fill="white"/>
<circle cx="48" cy="48" r="48" fill="#2c188e"/>
<path fill-rule="evenodd" clip-rule="evenodd" d="M37.7105 35.4543V65H27.0008V35.4543H37.7105ZM53.8547 35.3997V37.1407C55.4181 36.1316 57.221 35.545 59.9549 35.545C68.8591 35.545 70 42.4578 70 48.48V64.9992H59.2365V49.3034C59.2365 46.6637 58.292 46.1632 56.5456 46.1632C54.8853 46.1632 53.8547 46.6906 53.8547 49.3034V64.9992H43.0912V35.3997H53.8547ZM32.3549 22C35.3094 22 37.7097 24.4029 37.7097 27.3548C37.7097 30.3067 35.3094 32.7096 32.3548 32.7096C29.403 32.7096 27 30.3067 27 27.3548C27 24.403 29.403 22 32.3549 22Z" fill="#FCFCFE"/>
</g>
<defs>
<clipPath id="clip0_1_2">
<rect width="96" height="96" fill="white"/>
</clipPath>
</defs>
</svg>
