<svg width="96" height="96" viewBox="0 0 96 96" fill="none" xmlns="http://www.w3.org/2000/svg">
<g clip-path="url(#clip0_1_2)">
<rect width="96" height="96" fill="white"/>
<circle cx="48" cy="48" r="48" fill="#5023ff"/>
<path fill-rule="evenodd" clip-rule="evenodd" d="M69 39.2723C69 35.7507 67.816 32.8705 65.8503 30.6143C66.1659 29.7967 67.2167 26.5149 65.5464 22.0746C65.5464 22.0746 62.9757 21.2079 57.1223 25.3824C54.6761 24.666 52.0533 24.3078 49.4479 24.2962C46.8426 24.3078 44.2198 24.666 41.7765 25.3824C35.9201 21.2079 33.3466 22.0746 33.3466 22.0746C31.6763 26.5149 32.73 29.7967 33.0455 30.6143C31.0828 32.8705 29.8901 35.7507 29.8901 39.2723C29.8901 51.6369 37.0463 54.4045 43.8521 55.2192C43.8521 55.2192 38.9598 58.2439 38.9598 63.3283C37.2142 64.1546 29.8264 66.6853 27.0908 61.7539C27.0908 61.7539 25.4725 58.657 22.3953 58.4288C22.3953 58.4288 19.4019 58.3883 22.1839 60.3903C22.1839 60.3903 24.193 61.3841 25.5883 65.1108C25.5883 65.1108 27.14 72.9629 38.8614 69.4355C38.98 69.4962 38.9048 73.2344 38.9048 74H59.9969C59.9969 74 60.0316 66.4975 60.0316 64.1112C60.0316 58.2439 56.1062 56.1898 55.0032 55.1932C61.8323 54.3958 69 51.6687 69 39.2723Z" fill="#FCFCFE"/>
</g>
<defs>
<clipPath id="clip0_1_2">
<rect width="96" height="96" fill="white"/>
</clipPath>
</defs>
</svg>
