<svg width="96" height="96" viewBox="0 0 96 96" fill="none" xmlns="http://www.w3.org/2000/svg">
<g clip-path="url(#clip0_1_2)">
<rect width="96" height="96" fill="white"/>
<circle cx="48" cy="48" r="48" fill="#5023ff"/>
<path d="M70.5841 31.6176H55.763V35.9241H70.5841V31.6176Z" fill="#FCFCFE"/>
<path d="M73.6882 43.3128C72.5297 41.5858 71.065 40.3179 69.2725 39.531C67.5018 38.7222 65.4907 38.3287 63.2391 38.3505C59.5011 38.3505 56.4625 39.531 54.1016 41.8919C51.7626 44.2527 50.5822 47.641 50.5822 52.0786C50.5822 56.8004 51.8938 60.2106 54.4951 62.3091C57.0965 64.4077 60.0913 65.457 63.5015 65.457C67.633 65.457 70.8246 64.2109 73.1199 61.7189C74.5845 60.145 75.4152 58.5929 75.5901 57.0846H68.7697C68.3763 57.8497 67.9172 58.4399 67.3925 58.8552C66.4307 59.6422 65.1847 60.0357 63.6763 60.0357C62.2336 60.0357 61.0094 59.7078 59.982 59.0738C58.2988 58.0464 57.4244 56.232 57.3151 53.6744H75.9398C75.9835 51.4666 75.8961 49.7833 75.7212 48.6029C75.4152 46.5918 74.7375 44.8211 73.6882 43.3128ZM57.49 49.2587C57.7523 47.5973 58.3425 46.2857 59.2825 45.302C60.2225 44.3402 61.5559 43.8374 63.261 43.8374C64.8349 43.8374 66.1684 44.2965 67.2395 45.2146C68.2888 46.1327 68.879 47.488 69.0102 49.2587H57.49Z" fill="#FCFCFE"/>
<path d="M43.0186 46.0453C44.1772 45.455 45.0735 44.7992 45.6637 44.0779C46.7348 42.7881 47.2595 41.083 47.2595 38.9845C47.2595 36.9296 46.7348 35.159 45.6855 33.6943C43.9149 31.2897 40.92 30.0656 36.7229 30H20V64.6044H35.5643C37.335 64.6044 38.9526 64.4514 40.461 64.1454C41.9693 63.8175 43.2809 63.2491 44.3739 62.3966C45.3576 61.6752 46.1665 60.7571 46.8223 59.6859C47.8715 58.0683 48.3743 56.232 48.3743 54.1772C48.3743 52.1879 47.9153 50.5047 47.019 49.1057C46.1227 47.7066 44.7893 46.7011 43.0186 46.0453ZM26.8859 36.0115H34.4058C36.0671 36.0115 37.4224 36.2082 38.4936 36.558C39.7396 37.0826 40.3517 38.1319 40.3517 39.7496C40.3517 41.1923 39.8926 42.2198 38.9526 42.7881C38.0127 43.3565 36.8104 43.6407 35.302 43.6407H26.8859V36.0115ZM38.7996 57.959C37.9689 58.3743 36.8104 58.5711 35.302 58.5711H26.8859V49.3461H35.4113C36.8978 49.368 38.0345 49.5647 38.8652 49.9364C40.3517 50.614 41.0731 51.86 41.0731 53.6526C41.0731 55.773 40.3298 57.1939 38.7996 57.959Z" fill="#FCFCFE"/>
</g>
<defs>
<clipPath id="clip0_1_2">
<rect width="96" height="96" fill="white"/>
</clipPath>
</defs>
</svg>
