<svg width="96" height="96" viewBox="0 0 96 96" fill="none" xmlns="http://www.w3.org/2000/svg">
<g clip-path="url(#clip0_1_2)">
<rect width="96" height="96" fill="white"/>
<circle cx="48" cy="48" r="48" fill="#037ac5"/>
<path d="M44.624 60.2854C45.7243 60.3369 46.8487 60.374 47.987 60.374C49.1373 60.374 50.2737 60.3493 51.388 60.2854C50.2737 61.7678 49.1733 63.0793 48.009 64.329L48.025 64.3125C46.8667 63.0772 45.7543 61.7637 44.706 60.3966L44.624 60.2854ZM33.2246 58.6384C35.3912 59.2045 38.034 59.6863 40.7308 59.9828L40.9929 60.0054C42.6434 62.3381 44.3119 64.3908 46.1024 66.322L46.0804 66.2973C43.4576 69.3093 39.9186 71.4258 35.9154 72.1856L35.8053 72.202C35.7973 72.202 35.7893 72.202 35.7813 72.202C35.2852 72.202 34.817 72.0764 34.4069 71.8541L34.4229 71.8623C32.7584 70.8844 32.0362 67.1434 32.5984 62.336C32.7324 61.1522 32.9525 59.9066 33.2226 58.6363L33.2246 58.6384ZM62.7994 58.6116C63.0355 59.5875 63.2576 60.831 63.4156 62.0952L63.4336 62.2722C64.0078 67.0776 63.2996 70.8144 61.6491 71.8129C61.281 72.0229 60.8409 72.1464 60.3727 72.1464C60.3267 72.1464 60.2807 72.1444 60.2347 72.1423H60.2407C56.1334 71.3703 52.5964 69.2682 49.9796 66.2931L49.9656 66.2767C51.7241 64.3764 53.3806 62.3278 54.8991 60.1722L55.0151 59.9993C57.968 59.6822 60.6148 59.1922 63.1936 58.5231L62.7994 58.6095V58.6116ZM35.5633 50.928C36.0634 51.9368 36.5876 52.9415 37.1637 53.9504C37.7386 54.9537 38.3261 55.9337 38.9263 56.8904C37.1898 56.6289 35.5133 56.2995 33.9108 55.898C34.3609 54.2777 34.9251 52.5998 35.5613 50.9239L35.5633 50.928ZM60.4267 50.8765C61.0889 52.5668 61.6511 54.253 62.1172 55.8877C60.5168 56.2913 58.8262 56.633 57.0777 56.8904C57.6779 55.9248 58.2781 54.9304 58.8403 53.9112C59.4024 52.9086 59.9286 51.8833 60.4307 50.8744L60.4267 50.8765ZM31.232 39.8637C32.1042 42.9067 33.0405 45.4514 34.1308 47.9056L33.9808 47.5309C33.0485 49.6 32.1262 52.1303 31.37 54.7348L31.266 55.1568C29.8536 54.7101 28.7172 54.2715 27.6109 53.7795L27.841 53.8701C23.5117 51.9739 20.7108 49.4806 20.7108 47.5041C20.7108 45.5276 23.5117 43.022 27.841 41.134C28.8913 40.6708 30.0436 40.2529 31.232 39.8637ZM64.72 39.8534C65.9304 40.2385 67.0807 40.6688 68.157 41.134C72.4863 43.0385 75.2872 45.5276 75.2872 47.5041C75.2752 49.4806 72.4743 51.98 68.145 53.8721C67.0947 54.3354 65.9444 54.7513 64.758 55.1404C63.8778 52.0871 62.9415 49.5444 61.8552 47.0862L62.0072 47.4732C62.9355 45.4062 63.8598 42.8758 64.614 40.2714L64.72 39.8473V39.8534ZM57.0617 38.1178C58.8002 38.3834 60.4747 38.7087 62.0772 39.1143C61.6271 40.7408 61.0649 42.4126 60.4267 44.0885C59.9266 43.0858 59.4024 42.0749 58.8262 41.0682C58.2641 40.0593 57.6639 39.0773 57.0637 38.1199L57.0617 38.1178ZM38.9123 38.1178C38.3121 39.0876 37.7119 40.0799 37.1517 41.1032C36.5896 42.1058 36.0634 43.1147 35.5633 44.1235C34.9011 42.4352 34.3389 40.7532 33.8728 39.1143C35.4732 38.7293 37.1597 38.3855 38.9103 38.122L38.9123 38.1178ZM47.999 37.4631C49.8496 37.4631 51.6921 37.5496 53.5047 37.702C54.5196 39.1994 55.5053 40.7943 56.4615 42.4867C57.3911 44.1338 58.2394 45.8028 59.0063 47.4938C58.2361 49.18 57.3918 50.8642 56.4735 52.5112C55.5233 54.2098 54.541 55.826 53.5227 57.3227C51.7021 57.4854 49.8576 57.5739 47.997 57.5739C46.1464 57.5739 44.3039 57.4833 42.4913 57.3351C41.477 55.8383 40.4867 54.2365 39.5345 52.5503C38.6048 50.9033 37.7566 49.2342 36.9897 47.5432C37.7479 45.8529 38.6042 44.1647 39.5225 42.5155C40.4727 40.817 41.455 39.207 42.4733 37.7102C44.2939 37.5455 46.1384 37.459 47.999 37.459V37.4631ZM47.961 30.7081C49.1213 31.9434 50.2337 33.2548 51.28 34.6219L51.36 34.731C50.2597 34.6796 49.1353 34.6446 47.997 34.6446C46.8467 34.6446 45.7103 34.6693 44.596 34.731C45.7083 33.2487 46.8086 31.9372 47.975 30.6875L47.959 30.7039L47.961 30.7081ZM35.7553 22.8597C39.8626 23.6339 43.3976 25.7359 46.0164 28.7089L46.0304 28.7254C44.2719 30.6278 42.6154 32.6763 41.0969 34.836L40.9809 35.009C38.03 35.324 35.3832 35.8099 32.8064 36.479L33.1986 36.3925C32.9185 35.1325 32.7104 33.9116 32.5644 32.7401C31.9902 27.9348 32.6984 24.198 34.3489 23.2036C34.761 23.0039 35.2432 22.8803 35.7513 22.8639H35.7573L35.7553 22.8597ZM60.1827 22.8083V22.8247C60.2087 22.8247 60.2387 22.8227 60.2707 22.8227C60.7488 22.8227 61.199 22.9441 61.5951 23.1583L61.5791 23.15C63.2436 24.1321 63.9658 27.871 63.4036 32.6804C63.2696 33.8643 63.0495 35.1119 62.7794 36.3843C60.6088 35.8119 57.966 35.3281 55.2692 35.0337L55.0131 35.011C53.3606 32.6763 51.6921 30.6236 49.9016 28.6904L49.9256 28.7151C52.5484 25.7092 56.0814 23.5927 60.0766 22.8289L60.1887 22.8103L60.1827 22.8083ZM60.1947 20.0041C55.3092 20.7679 51.0799 23.2097 47.991 26.7324L47.975 26.751C44.8641 23.2303 40.6348 20.805 35.8694 20.07L35.7573 20.0556C35.7313 20.0556 35.6993 20.0556 35.6673 20.0556C34.685 20.0556 33.7627 20.3212 32.9645 20.7865L32.9925 20.7721C29.5555 22.8124 28.7852 29.1701 30.5598 37.1481C22.9495 39.5673 18 43.4338 18 47.5082C18 51.5992 22.9755 55.476 30.6078 57.8766C28.8473 65.8855 29.6335 72.2535 33.0785 74.2918C33.8347 74.7385 34.743 75 35.7093 75C35.7533 75 35.7973 75 35.8394 74.9979H35.8333C40.7188 74.2341 44.9481 71.7903 48.037 68.2655L48.053 68.247C51.1639 71.7697 55.3932 74.195 60.1586 74.93L60.2707 74.9444C60.3007 74.9444 60.3387 74.9444 60.3747 74.9444C61.351 74.9444 62.2693 74.6809 63.0635 74.2218L63.0355 74.2362C66.4705 72.1979 67.2428 65.8402 65.4682 57.8601C73.0505 55.4616 78 51.5868 78 47.5062C78 43.4152 73.0245 39.5384 65.3922 37.1317C67.1527 29.131 66.3665 22.7568 62.9215 20.7165C62.1572 20.2656 61.241 20 60.2647 20C60.2387 20 60.2127 20 60.1867 20H60.1907L60.1947 20.0041ZM53.5747 47.5082C53.5747 50.685 51.0719 53.2606 47.985 53.2606C44.8981 53.2606 42.3953 50.685 42.3953 47.5082C42.3953 44.3314 44.8981 41.7558 47.985 41.7558C49.5295 41.7558 50.9259 42.4002 51.9382 43.44C52.9505 44.4817 53.5747 45.9188 53.5747 47.5082Z" fill="#FCFCFE"/>
</g>
<defs>
<clipPath id="clip0_1_2">
<rect width="96" height="96" fill="white"/>
</clipPath>
</defs>
</svg>
