<svg width="96" height="96" viewBox="0 0 96 96" fill="none" xmlns="http://www.w3.org/2000/svg">
<g clip-path="url(#clip0_1_2)">
<rect width="96" height="96" fill="white"/>
<circle cx="48" cy="48" r="48" fill="#2c188e"/>
<path d="M47.3478 18C36.001 18 33.6522 23.8594 33.6522 27.2527V33.6522H46.6957V34.9565H27.2527C22.9474 34.9565 18 38.3499 18 48C18 57.6501 22.9474 61.0435 27.2527 61.0435H34.9565V53.2174C34.9565 50.3488 37.3054 48 40.1739 48H55.8261C58.0425 48 59.7391 46.3033 59.7391 44.087V27.2527C59.7391 22.6875 55.4338 18 47.3478 18ZM41.4783 24.5217C42.9151 24.5217 44.087 25.6936 44.087 27.1304C44.087 28.5673 42.9151 29.7391 41.4783 29.7391C40.0414 29.7391 38.8696 28.5673 38.8696 27.1304C38.8696 25.6936 40.0414 24.5217 41.4783 24.5217ZM61.0435 34.9565V44.087C61.0435 46.9555 58.6946 49.3043 55.8261 49.3043H40.1739C37.9575 49.3043 36.2609 51.001 36.2609 53.2174V68.7473C36.2609 73.3125 40.5662 78 48.6522 78C59.999 78 62.3478 72.1406 62.3478 68.7473V62.3478H49.3043V61.0435H68.7473C73.0527 61.0435 78 57.6501 78 48C78 38.3499 73.0527 34.9565 68.7473 34.9565H61.0435ZM54.5217 66.2609C55.9586 66.2609 57.1304 67.4327 57.1304 68.8696C57.1304 70.3064 55.9586 71.4783 54.5217 71.4783C53.0849 71.4783 51.913 70.3064 51.913 68.8696C51.913 67.4327 53.0849 66.2609 54.5217 66.2609Z" fill="#FCFCFE"/>
</g>
<defs>
<clipPath id="clip0_1_2">
<rect width="96" height="96" fill="white"/>
</clipPath>
</defs>
</svg>
