<svg width="96" height="96" viewBox="0 0 96 96" fill="none" xmlns="http://www.w3.org/2000/svg">
<g clip-path="url(#clip0_1_2)">
<rect width="96" height="96" fill="white"/>
<circle cx="48" cy="48" r="48" fill="#191C43"/>
<path d="M48.1204 41.0065C48.2161 42.6179 47.9462 44.2301 47.3308 45.7224C46.7154 47.2147 45.7705 48.5486 44.5668 49.6241C41.7014 51.7856 38.1532 52.8423 34.5721 52.6003H31.4183V64.9937H24V30.0346H35.1496C38.5857 29.7989 41.996 30.7732 44.7889 32.7887C45.9472 33.8032 46.8519 35.075 47.4304 36.502C48.009 37.929 48.2453 39.4717 48.1204 41.0065ZM31.4183 46.5591H33.817C35.5663 46.6463 37.2967 46.1631 38.7477 45.182C39.3339 44.724 39.7956 44.126 40.0905 43.443C40.3855 42.76 40.5041 42.0138 40.4357 41.273C40.5005 40.5637 40.4065 39.8489 40.1606 39.1805C39.9148 38.512 39.5231 37.9067 39.0142 37.4084C37.7271 36.4817 36.1533 36.041 34.5721 36.1647H31.4183V46.5591Z" fill="#FCFCFE"/>
<path d="M71.2636 57.0868C71.3268 58.2823 71.1016 59.4754 70.6068 60.5655C70.112 61.6556 69.3622 62.6107 68.4207 63.3501C65.8745 64.9442 62.8887 65.6906 59.8919 65.4823C58.2247 65.5049 56.559 65.3711 54.9168 65.0825C53.5889 64.8455 52.2924 64.458 51.0522 63.9276V57.9308C52.4869 58.5838 53.9725 59.1187 55.4943 59.5299C56.9475 59.9003 58.4372 60.1089 59.9363 60.1518C62.5571 60.1518 63.8898 59.3967 63.8898 57.8864C63.9002 57.6259 63.8584 57.3659 63.7669 57.1218C63.6753 56.8776 63.5359 56.6543 63.3567 56.4649C62.8331 55.9718 62.233 55.5668 61.5799 55.2655L58.1151 53.6664C56.5411 53.0531 55.0491 52.2474 53.673 51.2677C52.7887 50.6168 52.0729 49.7639 51.5852 48.7801C51.114 47.6717 50.8867 46.4749 50.9189 45.2709C50.8774 44.1952 51.108 43.1264 51.5895 42.1636C52.0709 41.2007 52.7875 40.3749 53.673 39.7627C56.0204 38.3333 58.7471 37.6517 61.491 37.8082C64.7353 37.8101 67.938 38.5386 70.8638 39.9404L68.6872 45.182C67.4701 44.641 66.2245 44.1665 64.9559 43.7606C63.8045 43.4068 62.6067 43.2271 61.4022 43.2275C59.2256 43.2275 58.1595 43.805 58.1595 44.9599C58.178 45.309 58.2857 45.6475 58.4724 45.943C58.659 46.2385 58.9183 46.4812 59.2256 46.6479C60.6315 47.505 62.1196 48.2192 63.6677 48.7801C65.2327 49.3942 66.7229 50.1841 68.1097 51.1344C69.011 51.7976 69.7418 52.6654 70.2419 53.6664C70.8542 54.7071 71.2048 55.8808 71.2636 57.0868Z" fill="#FCFCFE"/>
</g>
<defs>
<clipPath id="clip0_1_2">
<rect width="96" height="96" fill="white"/>
</clipPath>
</defs>
</svg>
