<svg width="96" height="96" viewBox="0 0 96 96" fill="none" xmlns="http://www.w3.org/2000/svg">
<g clip-path="url(#clip0_1_2)">
<rect width="96" height="96" fill="white"/>
<circle cx="48" cy="48" r="48" fill="#3B5756"/>
<path d="M74 41.4615V40.5897C74 36.7379 70.6833 33.6154 66.5928 33.6154H60.1111C55.5087 33.6154 51.7778 37.1282 51.7778 41.4615C51.7778 45.7949 55.5087 49.3077 60.1111 49.3077H65.6667C70.2689 49.3077 74 52.8207 74 57.1538C74 61.487 70.2689 65 65.6667 65H60.1111C55.5087 65 51.7778 61.487 51.7778 57.1538M40.6667 31V57.1538C40.6667 61.487 36.9357 65 32.3333 65C27.7309 65 24 61.487 24 57.1538" stroke="#FCFCFE" stroke-width="4"/>
</g>
<defs>
<clipPath id="clip0_1_2">
<rect width="96" height="96" fill="white"/>
</clipPath>
</defs>
</svg>
