<svg width="96" height="96" viewBox="0 0 96 96" fill="none" xmlns="http://www.w3.org/2000/svg">
<g clip-path="url(#clip0_1_2)">
<rect width="96" height="96" fill="white"/>
<circle cx="48" cy="48" r="48" fill="#037ac5"/>
<path d="M61 18H71V27.2653H61V18ZM71 61.4405C71 64.5676 70.2075 74.8729 60.395 78L51 73.592C58.015 70.7568 61 66.1797 61 61.4405C61 54.8899 61 34.2143 61 34.2143L71 34.219C71 34.219 71 54.4012 71 61.4405ZM43.5 18V32.5975C42.3275 32.1551 39.8 32.0694 38.555 32.0694C29.1825 32.0694 21 36.5562 21 48.1123C21 61.9385 32.26 64.3197 40.125 64.3197C43.23 64.3197 50.125 64.0371 53.5 63.1315V18H43.5ZM40.0225 56.604C35.6 56.604 31 54.744 31 48.1123C31 41.4807 35.6 40.077 40.0225 40.077C41.1025 40.077 42.3175 40.2646 43.5 40.5148V56.1662C42.32 56.4141 41.105 56.604 40.0225 56.604Z" fill="#FCFCFE"/>
</g>
<defs>
<clipPath id="clip0_1_2">
<rect width="96" height="96" fill="white"/>
</clipPath>
</defs>
</svg>
