<svg width="96" height="96" viewBox="0 0 96 96" fill="none" xmlns="http://www.w3.org/2000/svg">
<g clip-path="url(#clip0_1_2)">
<rect width="96" height="96" fill="white"/>
<circle cx="48" cy="48" r="48" fill="#037ac5"/>
<path d="M57.2828 41.5821C53.3876 41.5821 50.2308 44.6794 50.2308 48.5009C50.2308 52.3225 53.3876 55.4197 57.2828 55.4197H57.5108C61.4059 55.4197 64.5628 52.3225 64.5628 48.5009C64.5628 44.6794 61.4059 41.5821 57.5108 41.5821H57.2828ZM57.5108 58.7902H57.2828C51.4905 58.7902 46.7954 54.1837 46.7954 48.5009C46.7954 42.8181 51.4905 38.2117 57.2828 38.2117H57.5108C63.303 38.2117 67.9981 42.8181 67.9981 48.5009C67.9981 54.1837 63.303 58.7902 57.5108 58.7902ZM39.5154 58.7902C35.6202 58.7902 32.4615 61.8874 32.4615 65.7089C32.4615 69.5305 35.6184 72.6277 39.5135 72.6277C39.5341 72.6277 39.5565 72.6277 39.5771 72.6277H39.5733C39.5789 72.6277 39.5864 72.6277 39.5939 72.6277C43.5582 72.6277 46.7767 69.4846 46.7973 65.5989V58.7902H39.5154ZM39.5715 76C39.5472 76 39.5173 76 39.4873 76C33.6951 76 29 71.3936 29 65.7108C29 60.0279 33.6951 55.4215 39.4873 55.4215C39.4967 55.4215 39.506 55.4215 39.5154 55.4215H50.2308V65.5989C50.2083 71.3477 45.4515 76 39.5901 76C39.5845 76 39.5789 76 39.5733 76H39.5715ZM39.5154 41.5821C35.6202 41.5821 32.4634 44.6794 32.4634 48.5009C32.4634 52.3225 35.6202 55.4215 39.5154 55.4215L46.7954 55.4197V41.584L39.5154 41.5821ZM50.2289 58.7902H39.5154C33.7231 58.7902 29.028 54.1837 29.028 48.5009C29.028 42.8181 33.7231 38.2117 39.5154 38.2117H50.2308V58.7902H50.2289ZM39.5154 24.3741C35.6202 24.3741 32.4634 27.4713 32.4634 31.2929C32.4634 35.1145 35.6202 38.2117 39.5154 38.2117H46.7954V24.3723L39.5154 24.3741ZM50.2289 41.5821H39.5154C33.7231 41.5821 29.0262 36.9757 29.0262 31.2911C29.0262 25.6064 33.7213 21 39.5154 21H50.2308V41.5803L50.2289 41.5821ZM50.2289 38.2117H57.5108C61.3984 38.2025 64.5441 35.109 64.5441 31.2929C64.5441 27.4768 61.3966 24.3833 57.5089 24.3741H50.2289V38.2117ZM57.5108 41.5821L46.7954 41.584V21.0018H57.5108C63.303 21.0018 68 25.6082 68 31.2929C68 36.9776 63.3049 41.5821 57.5108 41.5821Z" fill="#FCFCFE"/>
</g>
<defs>
<clipPath id="clip0_1_2">
<rect width="96" height="96" fill="white"/>
</clipPath>
</defs>
</svg>
