<svg width="96" height="96" viewBox="0 0 96 96" fill="none" xmlns="http://www.w3.org/2000/svg">
<g clip-path="url(#clip0_1_2)">
<rect width="96" height="96" fill="white"/>
<circle cx="48" cy="48" r="48" fill="#037ac5"/>
<path d="M21.7084 33.1042C16.5377 40.5095 17.1823 50.1433 21.1318 58.0134C21.2256 58.2003 21.3193 58.3872 21.4201 58.5741C21.4811 58.6909 21.5397 58.8123 21.6076 58.9268C21.6428 58.9969 21.685 59.0646 21.7225 59.13C21.7905 59.2562 21.8584 59.3753 21.9288 59.5038C22.0538 59.7187 22.1788 59.9329 22.3038 60.1462C22.3741 60.263 22.4444 60.3822 22.5194 60.499C22.6616 60.7279 22.807 60.9553 22.9554 61.1811C23.0163 61.2792 23.0773 61.368 23.1429 61.4661C23.3492 61.7721 23.5601 62.0781 23.7758 62.3771L23.7945 62.4005C23.8273 62.4495 23.8672 62.4963 23.9024 62.5453C24.0899 62.8023 24.2774 63.0593 24.479 63.3115L24.6969 63.5872C24.872 63.8068 25.0501 64.0248 25.2314 64.2413L25.4353 64.4842C25.6767 64.7692 25.9252 65.0449 26.1853 65.3299L26.1994 65.3439L26.2275 65.3743C26.476 65.6429 26.7291 65.9069 26.9776 66.1685L27.219 66.4115C27.4182 66.61 27.6175 66.8063 27.8237 67.0001C27.9058 67.0796 27.9878 67.159 28.0722 67.2337C28.3441 67.4907 28.6207 67.7407 28.8996 67.9813C28.9043 67.986 28.9066 67.9906 28.9137 67.993C28.9606 68.035 29.0121 68.0747 29.059 68.1144C29.309 68.3278 29.559 68.5388 29.8091 68.7475L30.1208 68.9951C30.3271 69.1602 30.5357 69.3229 30.7466 69.4834L31.0818 69.738C31.3139 69.9085 31.5482 70.0767 31.785 70.2379C31.8717 70.2986 31.9537 70.3594 32.0428 70.4248L32.1131 70.4762C32.3382 70.6303 32.5679 70.7799 32.7952 70.927C32.8937 70.9924 32.9827 71.0602 33.0906 71.1139C33.4421 71.3335 33.7984 71.5554 34.1594 71.7657L34.4547 71.9315C34.7196 72.0857 34.9844 72.2352 35.2563 72.38C35.4017 72.4595 35.5517 72.5342 35.6993 72.609C35.8869 72.7094 36.0744 72.8099 36.2736 72.9057L36.4072 72.9687L36.6416 73.0832C36.9416 73.2265 37.2448 73.3666 37.551 73.5037L37.7386 73.5901C38.0886 73.7427 38.4425 73.8899 38.8004 74.0316L39.0582 74.1321C39.3887 74.2582 39.7239 74.3844 40.0591 74.5058L40.1856 74.5479C40.5607 74.6764 40.9357 74.7955 41.3107 74.9123L41.5803 74.9917C41.8803 75.0992 42.2647 75.2113 42.6608 75.3001L42.7335 75.3141C67.7362 79.8577 75 60.3401 75 60.3401C68.9011 68.2593 58.0721 70.35 47.8104 68.0233C47.4213 67.9346 47.0463 67.8154 46.6642 67.7033L46.3783 67.6169C46.0033 67.5032 45.636 67.384 45.2766 67.2594L45.1243 67.2057C44.7985 67.0913 44.4727 66.9698 44.1539 66.846L43.882 66.7385C43.5304 66.6007 43.1788 66.4535 42.8319 66.304L42.621 66.2106C42.3233 66.0751 42.028 65.9419 41.735 65.8018L41.4795 65.678C41.2498 65.5658 41.0224 65.449 40.795 65.3299C40.6427 65.2505 40.488 65.1757 40.338 65.0916C40.0614 64.9444 39.7895 64.7879 39.5176 64.6314L39.241 64.4772C38.8801 64.267 38.5238 64.0451 38.1722 63.8255C38.0737 63.7647 37.9847 63.6993 37.8839 63.6386C37.6284 63.4751 37.3729 63.3069 37.1221 63.134C37.0401 63.0803 36.958 63.0172 36.876 62.9611C36.6338 62.7914 36.3939 62.6185 36.1564 62.4425C36.0486 62.3631 35.9431 62.2814 35.8376 62.2019C35.6197 62.0361 35.4017 61.8702 35.1884 61.695L34.9001 61.4637C34.6282 61.2395 34.3586 61.0176 34.0914 60.7863L34.0023 60.7115C33.7164 60.4592 33.4398 60.2023 33.1538 59.9406L32.9148 59.7117C32.7069 59.5155 32.5038 59.3169 32.3053 59.116L32.0663 58.8777C31.8162 58.6177 31.5662 58.3545 31.3162 58.0882L31.2787 58.0485C31.0209 57.7658 30.7677 57.4785 30.5193 57.1865L30.3247 56.9482C30.1372 56.7263 29.9497 56.502 29.7786 56.2754C29.7106 56.196 29.6426 56.1119 29.577 56.0278C29.3614 55.7498 29.1504 55.4671 28.9441 55.1915C23.2484 47.4499 21.2021 36.7695 25.7564 28L21.7084 33.1042Z" fill="#FCFCFE"/>
<path d="M37.8554 27.3596C36.0643 30.0534 35 33.3479 35 36.8803C35 39.9923 35.8243 42.9172 37.2758 45.4608L37.2283 45.3707C37.7865 46.4265 38.3424 47.3183 38.9553 48.1662L38.9031 48.0923C39.4827 48.9864 40.1265 49.7626 40.851 50.458L40.8534 50.4603C41.1266 50.7514 41.4117 51.0379 41.7038 51.3175C41.7775 51.3914 41.8511 51.4607 41.9271 51.5346C42.2098 51.8003 42.4973 52.0637 42.7966 52.3178C42.8085 52.3271 42.8204 52.3409 42.8322 52.3478C43.1601 52.6297 43.5021 52.9023 43.8466 53.1634L44.077 53.339C44.4239 53.5977 44.7755 53.8519 45.1365 54.0921L45.1674 54.1152C45.3266 54.2215 45.4905 54.3232 45.652 54.4248C45.7304 54.4756 45.8041 54.5265 45.8825 54.5727C46.1414 54.7344 46.4027 54.8915 46.6688 55.0417L46.7781 55.104C47.0085 55.2334 47.2389 55.3582 47.4741 55.4737C47.5549 55.5176 47.638 55.5569 47.7212 55.5985C47.8827 55.6793 48.0442 55.7625 48.2081 55.8433L48.2794 55.8757C48.6144 56.0374 48.9493 56.1899 49.2938 56.3354C49.3674 56.3678 49.4411 56.3955 49.5171 56.4255C49.7903 56.5388 50.0706 56.6496 50.3485 56.7536L50.7049 56.8807C50.9567 56.9708 51.2132 57.0563 51.465 57.1394L51.8119 57.2457C52.1112 57.3566 52.4794 57.4629 52.8595 57.546L52.9165 57.5553C72.4817 60.7089 77 46.0569 77 46.0569C72.9283 51.7587 65.0414 54.4803 56.6295 52.3571C56.2494 52.2601 55.8883 52.1584 55.5225 52.0452C55.4109 52.0129 55.2992 51.9759 55.1899 51.9389C54.9286 51.8581 54.6721 51.768 54.4155 51.6779L54.0663 51.5531C53.786 51.4468 53.508 51.3382 53.2325 51.225C53.1564 51.1927 53.0804 51.165 53.0092 51.1326C52.6623 50.9871 52.3226 50.8323 51.9877 50.6729C51.8143 50.5897 51.6456 50.5019 51.4769 50.4187L51.1824 50.2709C50.9638 50.1554 50.7476 50.0368 50.5338 49.9151C50.4839 49.8874 50.4317 49.8597 50.3794 49.8296C50.1149 49.6787 49.8536 49.5231 49.5955 49.3629C49.5147 49.3121 49.4387 49.259 49.3603 49.2105C49.1893 49.1042 49.0206 48.9933 48.8519 48.8824C48.4908 48.6398 48.1416 48.388 47.7948 48.1292L47.5572 47.9444C43.8775 45.1466 41.1005 41.3762 39.6229 37.0328L39.5753 36.8711C39.0147 35.2677 38.6893 33.4195 38.6893 31.4996C38.6893 28.4084 39.5278 25.5067 40.9983 23L40.9532 23.0855L37.8554 27.3596Z" fill="#FCFCFE"/>
<path d="M51.8498 22.2639C50.6902 24.0056 50 26.153 50 28.4636C50 30.1306 50.3589 31.7114 51.0031 33.1313L50.9755 33.0614C52.6551 36.8548 55.7128 39.7669 59.486 41.1845L59.5895 41.2195C59.746 41.2801 59.9001 41.3314 60.0612 41.385L60.2683 41.4503C60.4477 41.5179 60.6732 41.5856 60.9033 41.6392L60.9424 41.6462C71.4039 43.6979 74.2431 36.2043 75 35.1038C72.5129 38.7317 68.337 39.6014 63.2109 38.3424C62.806 38.2421 62.3597 38.0952 61.9708 37.953C61.368 37.7362 60.8803 37.5263 60.4086 37.2932L60.4983 37.3328C59.5136 36.8455 58.6692 36.3162 57.8847 35.7077L57.9215 35.7357C53.3338 32.208 50.4855 25.4768 53.4787 20L51.8498 22.2639Z" fill="#FCFCFE"/>
</g>
<defs>
<clipPath id="clip0_1_2">
<rect width="96" height="96" fill="white"/>
</clipPath>
</defs>
</svg>
