<svg width="96" height="96" viewBox="0 0 96 96" fill="none" xmlns="http://www.w3.org/2000/svg">
<g clip-path="url(#clip0_1_2)">
<rect width="96" height="96" fill="white"/>
<circle cx="48" cy="48" r="48" fill="#2c188e"/>
<path d="M70.1246 48.0796C70.1222 46.5955 69.6005 45.1586 68.6491 44.0163C67.6978 42.874 66.3764 42.0979 64.9125 41.8214L72 21H38.499L45.5983 41.8627C44.3584 42.1377 43.2288 42.7745 42.3537 43.6917C41.4785 44.6089 40.8976 45.7651 40.685 47.0126C40.4723 48.2601 40.6376 49.5424 41.1597 50.6959C41.6818 51.8495 42.5371 52.8219 43.6164 53.4892C42.7248 54.8091 41.6876 56.0253 40.5243 57.1153C38.7235 58.8308 36.6077 60.1847 34.2926 61.1028C33.2059 60.4742 32.3822 59.4775 31.9717 58.2945C31.5612 57.1114 31.5913 55.8208 32.0563 54.658L32.1352 54.4753L32.2812 54.1316C33.5949 53.6776 34.7244 52.8096 35.4986 51.6591C36.2727 50.5085 36.6495 49.138 36.5717 47.7551C36.494 46.3722 35.9659 45.0521 35.0676 43.9949C34.1693 42.9376 32.9496 42.2007 31.5932 41.8957C30.2367 41.5907 28.8175 41.7342 27.5503 42.3045C26.2831 42.8748 25.2369 43.8409 24.5703 45.0564C23.9036 46.2719 23.6527 47.6707 23.8556 49.041C24.0584 50.4113 24.704 51.6784 25.6945 52.6505C25.4816 53.1042 25.2567 53.5639 25.026 54.0373C23.748 56.3792 22.818 58.8935 22.2652 61.5016C21.3482 67.0015 22.8272 71.4074 26.4281 73.8923C28.364 75.2711 30.6862 76.0085 33.066 75.9999C37.2704 75.9999 41.5241 73.8962 45.6871 71.8376C48.5956 70.2622 51.6643 68.9999 54.8413 68.0721C56.0133 67.8043 57.198 67.5952 58.391 67.4455C60.9174 67.2445 63.381 66.5588 65.6461 65.4262C66.9241 64.6994 68.0259 63.7015 68.8734 62.5032C69.721 61.3049 70.2936 59.9356 70.5506 58.4923C70.9701 56.0406 70.487 53.5204 69.1898 51.3953C69.8036 50.3975 70.1258 49.2498 70.1246 48.0796ZM67.6142 48.0796C67.6142 48.8449 67.3863 49.5931 66.9595 50.2295C66.5326 50.8658 65.9258 51.3618 65.216 51.6547C64.5061 51.9476 63.725 52.0242 62.9714 51.8749C62.2178 51.7256 61.5255 51.357 60.9822 50.8159C60.4389 50.2747 60.0689 49.5852 59.919 48.8345C59.7691 48.0839 59.846 47.3058 60.1401 46.5988C60.4341 45.8917 60.9321 45.2873 61.5709 44.8621C62.2098 44.4369 62.9609 44.21 63.7293 44.21C64.7591 44.2115 65.7464 44.6197 66.4746 45.3451C67.2028 46.0704 67.6126 47.0538 67.6142 48.0796ZM68.4957 23.5005L62.2364 41.8862C61.9685 41.9513 61.705 42.0333 61.4476 42.1318L55.2653 29.5603L49.0632 42.0571C48.7931 41.9644 48.517 41.8895 48.2369 41.8332L41.9994 23.5005H68.4957ZM46.9867 44.21C47.755 44.21 48.5061 44.4369 49.145 44.8621C49.7839 45.2873 50.2818 45.8917 50.5759 46.5988C50.8699 47.3058 50.9468 48.0839 50.7969 48.8345C50.647 49.5852 50.277 50.2747 49.7337 50.8159C49.1904 51.357 48.4982 51.7256 47.7446 51.8749C46.991 52.0242 46.2098 51.9476 45.5 51.6547C44.7901 51.3618 44.1833 50.8658 43.7565 50.2295C43.3296 49.5931 43.1017 48.8449 43.1017 48.0796C43.1028 47.0536 43.5124 46.07 44.2408 45.3445C44.9691 44.619 45.9566 44.211 46.9867 44.21ZM30.179 44.2473C30.9473 44.2473 31.6984 44.4742 32.3373 44.8994C32.9762 45.3246 33.4741 45.929 33.7682 46.6361C34.0622 47.3432 34.1391 48.1212 33.9892 48.8719C33.8393 49.6225 33.4693 50.312 32.926 50.8532C32.3827 51.3944 31.6905 51.7629 30.9369 51.9122C30.1833 52.0615 29.4021 51.9849 28.6923 51.692C27.9824 51.3991 27.3756 50.9031 26.9488 50.2668C26.5219 49.6304 26.294 48.8823 26.294 48.1169C26.2951 47.0913 26.7045 46.1079 27.4324 45.3825C28.1603 44.6571 29.1493 44.2489 30.179 44.2473ZM68.0756 58.0641C67.881 59.1469 67.4495 60.1739 66.8119 61.0721C66.1742 61.9703 65.346 62.7178 64.386 63.2616C62.3948 64.2263 60.2381 64.8062 58.0301 64.9705C56.7837 65.1492 55.496 65.3339 54.2359 65.6442C50.8814 66.6121 47.6417 67.9378 44.5729 69.5983C38.3333 72.6842 32.9378 75.3498 27.8658 71.8435C24.1445 69.2742 24.3161 64.5207 24.7499 61.916C25.2597 59.5446 26.112 57.2593 27.2801 55.1314C27.4615 54.7582 27.639 54.3948 27.8125 54.0333C28.3425 54.2435 28.8983 54.3822 29.4651 54.4459C28.9624 56.2117 29.1022 58.0976 29.86 59.7707C30.6177 61.4438 31.9446 62.7964 33.6064 63.5896L34.0895 63.8371L34.6003 63.6544C37.4501 62.6307 40.0537 61.025 42.2439 58.9401C43.6901 57.5837 44.9607 56.0528 46.0263 54.383C47.3892 54.5895 48.7826 54.3515 49.9986 53.7045C51.2146 53.0576 52.188 52.0363 52.7736 50.7932C53.3591 49.55 53.5254 48.1516 53.2477 46.8066C52.9699 45.4615 52.263 44.242 51.2325 43.33L55.2515 35.2352L59.3119 43.4851C58.1566 44.5942 57.4625 46.0955 57.3675 47.6909C57.2725 49.2862 57.7836 50.8588 58.7992 52.0961C59.8147 53.3333 61.2605 54.1447 62.8491 54.369C64.4377 54.5933 66.0528 54.214 67.3736 53.3066C68.1062 54.7781 68.3513 56.4431 68.0737 58.0621L68.0756 58.0641Z" fill="#FCFCFE"/>
</g>
<defs>
<clipPath id="clip0_1_2">
<rect width="96" height="96" fill="white"/>
</clipPath>
</defs>
</svg>
