<svg width="96" height="96" viewBox="0 0 96 96" fill="none" xmlns="http://www.w3.org/2000/svg">
<g clip-path="url(#clip0_1_2)">
<rect width="96" height="96" fill="white"/>
<circle cx="48" cy="48" r="48" fill="#037ac5"/>
<path fill-rule="evenodd" clip-rule="evenodd" d="M25.2867 54.4055C24.5065 56.2728 24.0706 58.2648 24 60.2862C24.1077 61.5328 24.5344 62.7312 25.2394 63.7666C26.566 65.2969 28.1614 66.5735 29.9474 67.5339L41.4824 75.1851C42.9017 76.3105 44.4977 77.1949 46.2061 77.8027C47.3153 78.0658 48.471 78.0658 49.5802 77.8027C51.3 77.2024 52.9088 76.3241 54.3422 75.203L66.0008 67.5474C67.805 66.5842 69.4186 65.3024 70.7628 63.7644C71.4729 62.7233 71.8992 61.5162 72 60.2615C71.9234 58.2238 71.476 56.2168 70.6796 54.3383L60.4831 22.3666C60.2555 21.3311 59.8441 20.3445 59.2684 19.4531C58.8491 18.9455 58.3073 18.5523 57.6938 18.3102C56.6687 18.0333 55.6023 17.9407 54.5446 18.0368H41.2687C40.2106 17.9409 39.1438 18.0358 38.1195 18.3169C37.5045 18.5585 36.9623 18.9536 36.5449 19.4644C35.9717 20.3558 35.5641 21.3426 35.3415 22.3778L25.2867 54.4055ZM55.0687 24.8228C55.543 25.5741 55.8789 26.4036 56.0607 27.2724L64.8154 55.9227C61.5271 54.2235 57.9976 53.0346 54.3489 52.3975L48.6602 33.2136C48.6252 33.1003 48.5635 32.997 48.4802 32.9123C48.3969 32.8276 48.2945 32.7641 48.1815 32.727C48.0685 32.6899 47.9482 32.6804 47.8307 32.6991C47.7132 32.7179 47.602 32.7644 47.5063 32.8348C47.3778 32.9285 47.2838 33.0615 47.2386 33.2136L41.6151 52.3908C37.9492 53.0266 34.4032 54.2201 31.1014 55.9295L39.892 27.2791C40.072 26.4087 40.4089 25.578 40.8863 24.8273C41.2344 24.4016 41.6847 24.0702 42.1954 23.8637C43.0559 23.6319 43.9511 23.556 44.8385 23.6395H51.121C52.0092 23.5559 52.9051 23.6319 53.7663 23.8637C54.2786 24.0708 54.7298 24.4039 55.0777 24.8318L55.0687 24.8228ZM48.2913 59.3651C50.9984 59.5213 53.683 58.7952 55.9393 57.2965C56.1957 58.101 56.2867 58.9486 56.2067 59.7889C56.1267 60.6291 55.8773 61.4446 55.4736 62.1867C54.6437 63.5921 53.4392 64.7409 51.9938 65.5057C50.4777 66.4649 49.1731 67.2986 49.1731 69.5106C49.1712 70.2202 49.332 70.9208 49.6432 71.559C48.6208 71.136 47.7472 70.4205 47.1326 69.5031C46.5181 68.5857 46.1902 67.5074 46.1904 66.4044V66.2677C46.1904 64.737 46.1904 62.8523 44.0264 62.8523C43.7248 62.8521 43.426 62.9107 43.1469 63.0248C42.5853 63.2565 42.1388 63.7006 41.9052 64.2597C41.7893 64.5374 41.7289 64.8351 41.7275 65.136C40.2444 63.5222 39.4476 61.3979 39.5051 59.2105C39.4946 58.2637 39.6273 57.3209 39.8988 56.4136C40.7985 58.1101 44.2176 59.3718 48.2913 59.3718V59.3651Z" fill="#FCFCFE"/>
</g>
<defs>
<clipPath id="clip0_1_2">
<rect width="96" height="96" fill="white"/>
</clipPath>
</defs>
</svg>
