<svg width="96" height="96" viewBox="0 0 96 96" fill="none" xmlns="http://www.w3.org/2000/svg">
<g clip-path="url(#clip0_1_2)">
<rect width="96" height="96" fill="white"/>
<circle cx="48" cy="48" r="48" fill="#037ac5"/>
<path d="M31.5601 75C30.2135 75 28.9823 74.7112 27.9627 74.0956C26.5699 73.2566 23.7305 70.6363 27.4625 64.4466C29.1516 61.644 31.7909 59.2507 35.0151 57.5003C33.9262 56.816 32.645 56.1042 31.1599 55.3649C25.5542 52.5727 22.6686 48.2433 23.0303 43.1746C23.5997 35.159 32.268 26.8029 44.6029 22.3772C55.6835 18.4055 66.868 19.5025 71.2117 24.9803C72.7699 26.9507 75.5632 32.3942 67.7529 40.3514C64.2402 43.9277 59.0654 46.0288 53.1865 46.2729C47.627 46.5067 42.0559 44.9868 39.0125 42.4112C37.8545 41.4312 37.8083 39.7978 38.901 38.7627C39.9975 37.7208 41.8289 37.6864 42.9831 38.663C44.5336 39.9801 48.3041 41.328 52.921 41.1217C55.4103 41.022 60.085 40.3377 63.4207 36.9471C67.0103 33.2952 68.1338 30.0146 66.5063 27.9617C64.1209 24.9494 56.0721 23.8318 46.7574 27.1708C36.6002 30.809 29.2131 37.5282 28.7899 43.5082C28.5706 46.5652 30.3135 49.0376 33.9724 50.8636C36.3347 52.0431 38.9048 53.4633 41.0094 55.1826C41.6365 55.0245 42.2713 54.8869 42.9177 54.7734C48.1925 53.8381 53.0057 54.5877 56.1067 56.8504C58.2459 58.4082 59.4655 60.3854 59.631 62.5725C59.9387 66.5235 56.7608 69.7009 56.3991 70.0517C55.3064 71.0971 53.4866 71.1521 52.317 70.1858C51.1512 69.2195 51.0858 67.5896 52.1592 66.5476C52.6825 66.0318 53.9983 64.3812 53.8713 62.9095C53.829 62.4349 53.6405 61.7059 52.4593 60.8428C50.8626 59.6805 47.9463 59.261 44.7337 59.7183C44.9645 60.2307 45.1338 60.7637 45.2531 61.3139C45.8379 64.113 44.7799 66.9912 42.1136 69.866C39.1049 73.1087 34.9804 75 31.5601 75ZM39.228 61.3276C36.6041 62.514 34.084 64.34 32.545 66.8915C31.1715 69.1782 31.3946 70.0379 31.3946 70.0448C31.864 70.0551 35.1343 69.3089 37.6736 66.5751C39.9706 64.0993 39.6782 62.7169 39.582 62.2595C39.5166 61.9569 39.4011 61.644 39.228 61.3276Z" fill="#FCFCFE"/>
</g>
<defs>
<clipPath id="clip0_1_2">
<rect width="96" height="96" fill="white"/>
</clipPath>
</defs>
</svg>
