<svg width="96" height="96" viewBox="0 0 96 96" fill="#FCFCFE" xmlns="http://www.w3.org/2000/svg">
<path d="M11.2129 34.5798C10.9473 30.3155 11.2998 27.9125 12.8127 23.6047C17.0716 20.0556 19.6513 18.6844 24.5441 17.1803C28.2809 12.8079 30.5471 10.5675 34.9425 7.00825C40.681 7.36266 43.7341 7.80587 48.8069 9.14973C53.124 7.55835 55.5865 7.11015 60.0051 7.00825C62.4948 6.8358 65.3333 9.33898 72.2698 17.1803C77.5053 18.9057 80.6021 19.7063 83.7346 23.6047C85.775 28.1771 85.5248 30.8808 85.601 35.6505C88.6672 40.4867 90.3642 43.2052 92 48.4994C89.4866 56.3708 88.094 57.7443 85.601 61.8837C85.4305 67.4644 85.8169 70.9232 82.6682 74.4649C78.7387 77.5387 76.4651 78.7173 72.2698 79.8186C72.2698 79.8186 65.071 89.4552 60.0051 89.7229C54.9393 89.9906 53.3611 89.3722 48.8069 88.3845C43.642 89.4332 40.9853 90.5252 34.9425 89.7229C28.1492 85.8538 27.8552 83.6861 24.5441 79.8186C20.3295 78.2074 17.9072 77.8775 13.8792 74.4649C11.1455 69.484 11.8004 66.7788 11.2129 61.8837C6.85347 54.2365 4.52703 50.0941 5.08056 48.4994C7.72523 40.4045 8.87559 39.4037 11.2129 34.5798Z" stroke="black"/>
<path d="M23.575 58V37.75H27.65C29 37.75 30.1167 37.9333 31 38.3C31.8833 38.65 32.5333 39.225 32.95 40.025C33.3833 40.8083 33.6 41.8417 33.6 43.125C33.6 43.9083 33.5167 44.625 33.35 45.275C33.1833 45.9083 32.9167 46.45 32.55 46.9C32.1833 47.3333 31.7 47.65 31.1 47.85L33.975 58H31.25L28.6 48.5H26.4V58H23.575ZM26.4 46.475H27.475C28.275 46.475 28.925 46.375 29.425 46.175C29.925 45.975 30.2917 45.6333 30.525 45.15C30.7583 44.6667 30.875 43.9917 30.875 43.125C30.875 41.9417 30.6583 41.0917 30.225 40.575C29.7917 40.0417 28.9333 39.775 27.65 39.775H26.4V46.475ZM35.4389 58L39.7389 37.75H42.4639L46.7889 58H44.1139L43.1889 52.9H39.0639L38.0889 58H35.4389ZM39.4389 50.875H42.8139L41.1139 41.75L39.4389 50.875ZM47.7436 58L52.0436 37.75H54.7686L59.0936 58H56.4186L55.4936 52.9H51.3686L50.3936 58H47.7436ZM51.7436 50.875H55.1186L53.4186 41.75L51.7436 50.875ZM61.0982 58L61.4732 37.75H64.2482L67.8232 54.175L71.4232 37.75H74.1732L74.5482 58H72.2732L72.0482 43.3L68.6232 58H67.0232L63.6232 43.3L63.3982 58H61.0982Z" fill="black"/>
</svg>
