<svg version="1.1"
      xmlns="http://www.w3.org/2000/svg"
      xmlns:xlink="http://www.w3.org/1999/xlink"  id="snapshot-91357" width="500" height="250" viewBox="0 0 500 250"><desc>This image was made on Patterninja.com</desc><defs>
<!-- image 12949 -->
<g id="transformed-12949" data-image="12949" transform="translate(-40, -40) rotate(0, 40, 40)"><g><svg version="1.1" width="80px" height="80px" viewBox="0 0 80 80"><g id="original-12949"><svg xmlns="http://www.w3.org/2000/svg" fill="none" viewBox="0 0 96 96" xmlns:xlink="http://www.w3.org/1999/xlink" version="1.1" preserveAspectRatio="xMidYMid meet">
  <path d="M56.5 4h-17L38 5l-.5 31.5-1 1H5l-1.5 2v17l2.5 2h30.5l1 1v31l2 1.5H57l1.5-1.5v-31l1-1H90l1.5-2v-17L90 38l-30.5-.5-1-1V6l-2-2z" fill="rgba(44, 24, 142, 1)" stroke="rgba(44, 24, 142, 1)"/>
</svg>
</g></svg></g></g>
<!-- /image 12949 -->

<!-- image 55501 -->
<g id="transformed-55501" data-image="55501" transform="translate(130, 150) rotate(20, 20, 20)"><g transform="translate(40, 40) scale(-1, -1)"><svg version="1.1" width="40px" height="40px" viewBox="0 0 40 40"><g id="original-55501"><svg xmlns="http://www.w3.org/2000/svg" fill="none" viewBox="0 0 96 96" xmlns:xlink="http://www.w3.org/1999/xlink" version="1.1" preserveAspectRatio="xMidYMid meet">
  <circle cx="48" cy="48" r="48" clip-path="url(#a)" fill="rgba(44, 24, 142, 1)" stroke="none"/>
  <defs>
    <clipPath id="a">
      <path d="M0 0h96v96H0z" fill="rgba(255, 255, 255, 1)" stroke="none"/>
    </clipPath>
  </defs>
</svg>
</g></svg></g></g>
<!-- /image 55501 -->

<!-- image 94236 -->
<g id="transformed-94236" data-image="94236" transform="translate(275, -25) rotate(198, 25, 25)"><g><svg version="1.1" width="50px" height="50px" viewBox="0 0 50 50"><g id="original-94236"><svg xmlns="http://www.w3.org/2000/svg" fill="none" viewBox="0 0 96 96" xmlns:xlink="http://www.w3.org/1999/xlink" version="1.1" preserveAspectRatio="xMidYMid meet">
  <circle cx="48" cy="48" r="48" clip-path="url(#a)" fill="rgba(0, 0, 0, 1)" stroke="none"/>
  <circle cx="47.5" cy="48.5" r="41.5" clip-path="url(#a)" fill="rgba(255, 255, 255, 1)" stroke="none"/>
  <defs>
    <clipPath id="a">
      <path d="M0 0h96v96H0z" fill="rgba(255, 255, 255, 1)" stroke="none"/>
    </clipPath>
  </defs>
</svg>
</g></svg></g></g>
<!-- /image 94236 -->

<!-- image 46059 -->
<g id="transformed-46059" data-image="46059" transform="translate(310.40082350616547, 60.400823506165494) rotate(180, 69.59917649383452, 69.5991764938345)"><g><svg version="1.1" width="139.19835298766904px" height="139.198352987669px" viewBox="0 0 139.19835298766904 139.198352987669"><g id="original-46059"><svg xmlns="http://www.w3.org/2000/svg" fill="none" viewBox="0 0 96 96" xmlns:xlink="http://www.w3.org/1999/xlink" version="1.1" preserveAspectRatio="xMidYMid meet">
  <path d="M38 90.096V1h14v89.096c-.751 3.79-2.11 5.129-6.462 5.904-4.36-.484-6.12-1.634-7.538-5.904z" clip-path="url(#a)" fill="rgba(0, 0, 0, 1)" stroke="rgba(0, 0, 0, 1)"/>
  <defs>
    <clipPath id="a">
      <path d="M0 0h96v96H0z" fill="rgba(255, 255, 255, 1)" stroke="none"/>
    </clipPath>
  </defs>
</svg>
</g></svg></g></g>
<!-- /image 46059 -->
</defs><rect x="0" y="0" width="500" height="250" fill="rgba(252, 252, 254, 1)"></rect><use xlink:href="#transformed-12949" transform="translate(-500, -250)"></use><use xlink:href="#transformed-12949" transform="translate(0, -250)"></use><use xlink:href="#transformed-12949" transform="translate(500, -250)"></use><use xlink:href="#transformed-12949" transform="translate(-500, 0)"></use><use xlink:href="#transformed-12949" transform="translate(0, 0)"></use><use xlink:href="#transformed-12949" transform="translate(500, 0)"></use><use xlink:href="#transformed-12949" transform="translate(-500, 250)"></use><use xlink:href="#transformed-12949" transform="translate(0, 250)"></use><use xlink:href="#transformed-12949" transform="translate(500, 250)"></use><use xlink:href="#transformed-55501" transform="translate(-500, -250)"></use><use xlink:href="#transformed-55501" transform="translate(0, -250)"></use><use xlink:href="#transformed-55501" transform="translate(500, -250)"></use><use xlink:href="#transformed-55501" transform="translate(-500, 0)"></use><use xlink:href="#transformed-55501" transform="translate(0, 0)"></use><use xlink:href="#transformed-55501" transform="translate(500, 0)"></use><use xlink:href="#transformed-55501" transform="translate(-500, 250)"></use><use xlink:href="#transformed-55501" transform="translate(0, 250)"></use><use xlink:href="#transformed-55501" transform="translate(500, 250)"></use><use xlink:href="#transformed-94236" transform="translate(-500, -250)"></use><use xlink:href="#transformed-94236" transform="translate(0, -250)"></use><use xlink:href="#transformed-94236" transform="translate(500, -250)"></use><use xlink:href="#transformed-94236" transform="translate(-500, 0)"></use><use xlink:href="#transformed-94236" transform="translate(0, 0)"></use><use xlink:href="#transformed-94236" transform="translate(500, 0)"></use><use xlink:href="#transformed-94236" transform="translate(-500, 250)"></use><use xlink:href="#transformed-94236" transform="translate(0, 250)"></use><use xlink:href="#transformed-94236" transform="translate(500, 250)"></use><use xlink:href="#transformed-46059" transform="translate(-500, -250)"></use><use xlink:href="#transformed-46059" transform="translate(0, -250)"></use><use xlink:href="#transformed-46059" transform="translate(500, -250)"></use><use xlink:href="#transformed-46059" transform="translate(-500, 0)"></use><use xlink:href="#transformed-46059" transform="translate(0, 0)"></use><use xlink:href="#transformed-46059" transform="translate(500, 0)"></use><use xlink:href="#transformed-46059" transform="translate(-500, 250)"></use><use xlink:href="#transformed-46059" transform="translate(0, 250)"></use><use xlink:href="#transformed-46059" transform="translate(500, 250)"></use></svg>