<?xml version="1.0" standalone="no"?><svg xmlns:xlink="http://www.w3.org/1999/xlink" xmlns="http://www.w3.org/2000/svg" viewBox="0 0 1440 606.3077086092715" preserveAspectRatio="xMaxYMax slice"><g transform="scale(0.9536423841059603)"><rect x="0" y="0" width="1510" height="635.7894736842105" fill="#ffffff"/><rect x="31.79" y="31.79" width="15.89" height="15.89" fill="#fdfdfe"/><rect x="31.79" y="31.79" width="15.89" height="15.89" fill="#fef4f7"/><rect x="111.26" y="31.79" width="15.89" height="15.89" fill="#fdfdfe"/><path d="M 111.26 31.79 A 15.89 15.89 0 0 1  127.15 47.68 L 111.26 31.79 A 15.89 15.89 0 0 0 127.15 47.68" fill="#bcaaff"/><rect x="190.74" y="31.79" width="15.89" height="15.89" fill="#fdedf2"/><g transform="translate(190.74,31.79) scale(0.7945) rotate(0)"><rect width="2" height="20" fill="#fcfcfe"/><rect x="4" width="2" height="20" fill="#fcfcfe"/><rect x="8" width="2" height="20" fill="#fcfcfe"/><rect x="12" width="2" height="20" fill="#fcfcfe"/><rect x="16" width="2" height="20" fill="#fcfcfe"/></g><rect x="270.21" y="31.79" width="15.89" height="15.89" fill="#fffcfd"/><g transform="translate(270.21,31.79) scale(0.7945) rotate(0)"><path fill-rule="evenodd" clip-rule="evenodd" d="M10 20C15.5228 20 20 15.5228 20 10C20 4.47715 15.5228 0 10 0C4.47715 0 0 4.47715 0 10C0 15.5228 4.47715 20 10 20ZM10 17C13.866 17 17 13.866 17 10C17 6.13401 13.866 3 10 3C6.13401 3 3 6.13401 3 10C3 13.866 6.13401 17 10 17Z" fill="#ffffff"/></g><rect x="349.68" y="31.79" width="15.89" height="15.89" fill="#fef5f8"/><circle cx="357.625" cy="39.735" r="7.945" fill="#fefeff"/><rect x="429.16" y="31.79" width="15.89" height="15.89" fill="#fef5f8"/><g transform="translate(429.16,31.79) scale(0.7945) rotate(0)"><path d="M5 0H10L5 5L0 10V5L5 0Z" fill="#fdfdfe"/><path d="M20 15V20H15L20 15Z" fill="#fdfdfe"/><path d="M20 5V10L15 15L10 20H5L20 5Z" fill="#fdfdfe"/><path d="M15 0H20L5 15.0002L0 20.0002V15.0002L15 0Z" fill="#fdfdfe"/></g><rect x="508.63" y="31.79" width="15.89" height="15.89" fill="#fffcfd"/><g transform="translate(508.63,31.79) scale(0.7945) rotate(0)"><path d="M10 0L20 10L10 20L0 10L10 0Z" fill="#fefeff"/></g><rect x="588.11" y="31.79" width="15.89" height="15.89" fill="#fdeef3"/><g transform="translate(588.11,31.79) scale(0.7945) rotate(0)"><rect width="20" height="10" fill="#a993ff"/></g><rect x="667.58" y="31.79" width="15.89" height="15.89" fill="#fce8ee"/><g transform="translate(667.58,31.79) scale(0.7945) rotate(0)"><path d="M5 0H10L5 5L0 10V5L5 0Z" fill="#ece8ff"/><path d="M20 15V20H15L20 15Z" fill="#ece8ff"/><path d="M20 5V10L15 15L10 20H5L20 5Z" fill="#ece8ff"/><path d="M15 0H20L5 15.0002L0 20.0002V15.0002L15 0Z" fill="#ece8ff"/></g><rect x="747.05" y="31.79" width="15.89" height="15.89" fill="#fefeff"/><g transform="translate(747.05,31.79) scale(0.7945) rotate(0)"><path d="M10 0H20V10L10 20H0V10L10 0Z" fill="#fce8ee"/></g><rect x="826.53" y="31.79" width="15.89" height="15.89" fill="#6b45ff"/><g transform="translate(826.53,31.79) scale(0.7945) rotate(0)"><path fill-rule="evenodd" clip-rule="evenodd" d="M10 20C15.5228 20 20 15.5228 20 10C20 4.47715 15.5228 0 10 0C4.47715 0 0 4.47715 0 10C0 15.5228 4.47715 20 10 20ZM10 17C13.866 17 17 13.866 17 10C17 6.13401 13.866 3 10 3C6.13401 3 3 6.13401 3 10C3 13.866 6.13401 17 10 17Z" fill="#fefeff"/></g><rect x="906" y="31.79" width="15.89" height="15.89" fill="#5125ff"/><rect x="906" y="31.79" width="15.89" height="15.89" fill="#fefeff"/><rect x="1064.95" y="31.79" width="15.89" height="15.89" fill="#e6dfff"/><g transform="translate(1064.95,31.79) scale(0.7945) rotate(0)"><rect width="20" height="10" fill="#fdfdfe"/></g><rect x="1144.42" y="31.79" width="15.89" height="15.89" fill="#fef8fa"/><g transform="translate(1144.42,31.79) scale(0.7945) rotate(0)"><rect width="20" height="2" fill="#fefafb"/><rect y="4" width="20" height="2" fill="#fefafb"/><rect y="8" width="20" height="2" fill="#fefafb"/><rect y="12" width="20" height="2" fill="#fefafb"/><rect y="16" width="20" height="2" fill="#fefafb"/></g><rect x="1223.89" y="31.79" width="15.89" height="15.89" fill="#fdf0f4"/><g transform="translate(1223.89,31.79) scale(0.7945) rotate(0)"><rect width="20" height="10" fill="#fdedf2"/></g><rect x="1303.37" y="31.79" width="15.89" height="15.89" fill="#724eff"/><rect x="1303.37" y="31.79" width="15.89" height="15.89" fill="#fdf0f4"/><rect x="1382.84" y="31.79" width="15.89" height="15.89" fill="#fdecf1"/><path d="M 1382.84 47.68 A 15.89 15.89 0 0 1  1398.73 31.79 L 1382.84 47.68 A 15.89 15.89 0 0 0 1398.73 31.79" fill="#fffefe"/><rect x="1462.32" y="31.79" width="15.89" height="15.89" fill="#fdfdfe"/><rect x="1462.32" y="31.79" width="15.89" height="15.89" fill="#fefeff"/><rect x="31.79" y="111.26" width="15.89" height="15.89" fill="#ece7ff"/><g transform="translate(31.79,111.26) scale(0.7945) rotate(0)"><path d="M10 0H20V10L10 20H0V10L10 0Z" fill="#fcfcfe"/></g><rect x="111.26" y="111.26" width="15.89" height="15.89" fill="#fdeef3"/><g transform="translate(111.26,111.26) scale(0.7945) rotate(0)"><path d="M10 0H20V10L10 20H0V10L10 0Z" fill="#fef7f9"/></g><rect x="429.16" y="111.26" width="15.89" height="15.89" fill="#fce8ee"/><circle cx="437.105" cy="119.20500000000001" r="7.945" fill="#fef3f6"/><rect x="588.11" y="111.26" width="15.89" height="15.89" fill="#a38cff"/><g transform="translate(588.11,111.26) scale(0.7945) rotate(0)"><path d="M13 0H20V7L7 20H0V13L13 0Z" fill="#fefeff"/></g><rect x="747.05" y="111.26" width="15.89" height="15.89" fill="#fdeef3"/><g transform="translate(747.05,111.26) scale(0.7945) rotate(0)"><path d="M10 0H20L0 20V10L10 0Z" fill="#a38bff"/><path d="M20 10V20H10L20 10Z" fill="#a38bff"/></g><rect x="906" y="111.26" width="15.89" height="15.89" fill="#9a80ff"/><circle cx="913.945" cy="119.20500000000001" r="7.945" fill="#fefeff"/><rect x="1064.95" y="111.26" width="15.89" height="15.89" fill="#ded6ff"/><g transform="translate(1064.95,111.26) scale(0.7945) rotate(0)"><path d="M10 0H20L0 20V10L10 0Z" fill="#fef5f8"/><path d="M20 10V20H10L20 10Z" fill="#fef5f8"/></g><rect x="1144.42" y="111.26" width="15.89" height="15.89" fill="#fffdfe"/><g transform="translate(1144.42,111.26) scale(0.7945) rotate(0)"><rect width="2" height="20" fill="#fdfdfe"/><rect x="4" width="2" height="20" fill="#fdfdfe"/><rect x="8" width="2" height="20" fill="#fdfdfe"/><rect x="12" width="2" height="20" fill="#fdfdfe"/><rect x="16" width="2" height="20" fill="#fdfdfe"/></g><rect x="1382.84" y="111.26" width="15.89" height="15.89" fill="#fce9ef"/><g transform="translate(1382.84,111.26) scale(0.7945) rotate(0)"><path d="M10 5L5 0L0 5L5 10L0 15L5 20L10 15L15 20L20 15L15 10L20 5L15 0L10 5Z" fill="#fdf1f5"/></g><rect x="31.79" y="190.74" width="15.89" height="15.89" fill="#c9bcff"/><rect x="31.79" y="190.74" width="15.89" height="15.89" fill="#fef8fa"/><rect x="111.26" y="190.74" width="15.89" height="15.89" fill="#ffffff"/><g transform="translate(111.26,190.74) scale(0.7945) rotate(0)"><path fill-rule="evenodd" clip-rule="evenodd" d="M10 20C15.5228 20 20 15.5228 20 10C20 4.47715 15.5228 0 10 0C4.47715 0 0 4.47715 0 10C0 15.5228 4.47715 20 10 20ZM10 17C13.866 17 17 13.866 17 10C17 6.13401 13.866 3 10 3C6.13401 3 3 6.13401 3 10C3 13.866 6.13401 17 10 17Z" fill="#896aff"/></g><rect x="349.68" y="190.74" width="15.89" height="15.89" fill="#7d5cff"/><g transform="translate(349.68,190.74) scale(0.7945) rotate(0)"><path d="M10 0L20 10L10 20L0 10L10 0Z" fill="#bdabff"/></g><rect x="429.16" y="190.74" width="15.89" height="15.89" fill="#653eff"/><g transform="translate(429.16,190.74) scale(0.7945) rotate(0)"><path d="M10 5L5 0L0 5L5 10L0 15L5 20L10 15L15 20L20 15L15 10L20 5L15 0L10 5Z" fill="#b7a5ff"/></g><rect x="588.11" y="190.74" width="15.89" height="15.89" fill="#7a58ff"/><g transform="translate(588.11,190.74) scale(0.7945) rotate(0)"><rect width="20" height="2" fill="#fef4f7"/><rect y="4" width="20" height="2" fill="#fef4f7"/><rect y="8" width="20" height="2" fill="#fef4f7"/><rect y="12" width="20" height="2" fill="#fef4f7"/><rect y="16" width="20" height="2" fill="#fef4f7"/></g><rect x="667.58" y="190.74" width="15.89" height="15.89" fill="#fefbfc"/><g transform="translate(667.58,190.74) scale(0.7945) rotate(0)"><path d="M10 0H20V10L10 20H0V10L10 0Z" fill="#fefeff"/></g><rect x="747.05" y="190.74" width="15.89" height="15.89" fill="#9a80ff"/><g transform="translate(747.05,190.74) scale(0.7945) rotate(0)"><path d="M10 5L5 0L0 5L5 10L0 15L5 20L10 15L15 20L20 15L15 10L20 5L15 0L10 5Z" fill="#fef5f8"/></g><rect x="826.53" y="190.74" width="15.89" height="15.89" fill="#fdfdfe"/><path d="M 826.53 206.63 A 15.89 15.89 0 0 1  842.42 190.74 L 826.53 206.63 A 15.89 15.89 0 0 0 842.42 190.74" fill="#ffffff"/><rect x="906" y="190.74" width="15.89" height="15.89" fill="#fffefe"/><g transform="translate(906,190.74) scale(0.7945) rotate(0)"><rect width="2" height="20" fill="#5428ff"/><rect x="4" width="2" height="20" fill="#5428ff"/><rect x="8" width="2" height="20" fill="#5428ff"/><rect x="12" width="2" height="20" fill="#5428ff"/><rect x="16" width="2" height="20" fill="#5428ff"/></g><rect x="985.47" y="190.74" width="15.89" height="15.89" fill="#fdeff3"/><g transform="translate(985.47,190.74) scale(0.7945) rotate(0)"><path d="M10 0L20 10L10 20L0 10L10 0Z" fill="#fdfdfe"/></g><rect x="1064.95" y="190.74" width="15.89" height="15.89" fill="#fdfdfe"/><g transform="translate(1064.95,190.74) scale(0.7945) rotate(0)"><rect width="20" height="10" fill="#fefeff"/></g><rect x="1144.42" y="190.74" width="15.89" height="15.89" fill="#d7cdff"/><g transform="translate(1144.42,190.74) scale(0.7945) rotate(0)"><path fill-rule="evenodd" clip-rule="evenodd" d="M10 20C15.5228 20 20 15.5228 20 10C20 4.47715 15.5228 0 10 0C4.47715 0 0 4.47715 0 10C0 15.5228 4.47715 20 10 20ZM10 17C13.866 17 17 13.866 17 10C17 6.13401 13.866 3 10 3C6.13401 3 3 6.13401 3 10C3 13.866 6.13401 17 10 17Z" fill="#fefeff"/></g><rect x="1223.89" y="190.74" width="15.89" height="15.89" fill="#572cff"/><g transform="translate(1223.89,190.74) scale(0.7945) rotate(0)"><rect width="20" height="10" fill="#7855ff"/></g><rect x="1303.37" y="190.74" width="15.89" height="15.89" fill="#5428ff"/><g transform="translate(1303.37,190.74) scale(0.7945) rotate(0)"><path fill-rule="evenodd" clip-rule="evenodd" d="M10 20C15.5228 20 20 15.5228 20 10C20 4.47715 15.5228 0 10 0C4.47715 0 0 4.47715 0 10C0 15.5228 4.47715 20 10 20ZM10 17C13.866 17 17 13.866 17 10C17 6.13401 13.866 3 10 3C6.13401 3 3 6.13401 3 10C3 13.866 6.13401 17 10 17Z" fill="#fef9fa"/></g><rect x="1382.84" y="190.74" width="15.89" height="15.89" fill="#fefeff"/><g transform="translate(1382.84,190.74) scale(0.7945) rotate(0)"><path d="M13 0H20V7L7 20H0V13L13 0Z" fill="#fcfcfe"/></g><rect x="1462.32" y="190.74" width="15.89" height="15.89" fill="#fcfcfe"/><rect x="1462.32" y="190.74" width="15.89" height="15.89" fill="#fffdfd"/><rect x="31.79" y="270.21" width="15.89" height="15.89" fill="#fefeff"/><rect x="31.79" y="270.21" width="15.89" height="15.89" fill="#fce6ed"/><rect x="349.68" y="270.21" width="15.89" height="15.89" fill="#fdf1f5"/><path d="M 349.68 286.09999999999997 A 15.89 15.89 0 0 0 365.57 270.21 L 349.68 270.21" fill="#fdedf2"/><rect x="667.58" y="270.21" width="15.89" height="15.89" fill="#fef4f7"/><path d="M 667.58 270.21 A 15.89 15.89 0 0 1  683.47 286.09999999999997 L 667.58 270.21 A 15.89 15.89 0 0 0 683.47 286.09999999999997" fill="#6139ff"/><rect x="747.05" y="270.21" width="15.89" height="15.89" fill="#fdfdfe"/><g transform="translate(747.05,270.21) scale(0.7945) rotate(0)"><path d="M10 0H20V10L10 20H0V10L10 0Z" fill="#fef5f8"/></g><rect x="826.53" y="270.21" width="15.89" height="15.89" fill="#7b59ff"/><g transform="translate(826.53,270.21) scale(0.7945) rotate(0)"><rect width="20" height="10" fill="#fdedf2"/></g><rect x="906" y="270.21" width="15.89" height="15.89" fill="#9277ff"/><path d="M 906 270.21 A 15.89 15.89 0 0 0 921.89 286.09999999999997 L 921.89 270.21" fill="#fdfdfe"/><rect x="985.47" y="270.21" width="15.89" height="15.89" fill="#d3c8ff"/><g transform="translate(985.47,270.21) scale(0.7945) rotate(0)"><path fill-rule="evenodd" clip-rule="evenodd" d="M10 20C15.5228 20 20 15.5228 20 10C20 4.47715 15.5228 0 10 0C4.47715 0 0 4.47715 0 10C0 15.5228 4.47715 20 10 20ZM10 17C13.866 17 17 13.866 17 10C17 6.13401 13.866 3 10 3C6.13401 3 3 6.13401 3 10C3 13.866 6.13401 17 10 17Z" fill="#fcfcfe"/></g><rect x="1064.95" y="270.21" width="15.89" height="15.89" fill="#fffdfe"/><g transform="translate(1064.95,270.21) scale(0.7945) rotate(0)"><path d="M5 0H10L5 5L0 10V5L5 0Z" fill="#fdfdfe"/><path d="M20 15V20H15L20 15Z" fill="#fdfdfe"/><path d="M20 5V10L15 15L10 20H5L20 5Z" fill="#fdfdfe"/><path d="M15 0H20L5 15.0002L0 20.0002V15.0002L15 0Z" fill="#fdfdfe"/></g><rect x="1144.42" y="270.21" width="15.89" height="15.89" fill="#dbd2ff"/><g transform="translate(1144.42,270.21) scale(0.7945) rotate(0)"><path d="M10 0L20 10L10 20L0 10L10 0Z" fill="#fefeff"/></g><rect x="1223.89" y="270.21" width="15.89" height="15.89" fill="#fef5f8"/><path d="M 1223.89 270.21 A 15.89 15.89 0 0 1  1239.7800000000002 286.09999999999997 L 1223.89 270.21 A 15.89 15.89 0 0 0 1239.7800000000002 286.09999999999997" fill="#ac96ff"/><rect x="1303.37" y="270.21" width="15.89" height="15.89" fill="#cbbeff"/><g transform="translate(1303.37,270.21) scale(0.7945) rotate(0)"><path d="M10 5L5 0L0 5L5 10L0 15L5 20L10 15L15 20L20 15L15 10L20 5L15 0L10 5Z" fill="#d0c4ff"/></g><rect x="1462.32" y="270.21" width="15.89" height="15.89" fill="#fef6f9"/><g transform="translate(1462.32,270.21) scale(0.7945) rotate(0)"><rect width="20" height="10" fill="#6a44ff"/></g><rect x="111.26" y="349.68" width="15.89" height="15.89" fill="#6943ff"/><path d="M 111.26 365.57 A 15.89 15.89 0 0 0 127.15 349.68 L 111.26 349.68" fill="#ffffff"/><rect x="349.68" y="349.68" width="15.89" height="15.89" fill="#fefbfc"/><g transform="translate(349.68,349.68) scale(0.7945) rotate(0)"><path d="M10 0L20 10L10 20L0 10L10 0Z" fill="#ffffff"/></g><rect x="429.16" y="349.68" width="15.89" height="15.89" fill="#fffdfe"/><g transform="translate(429.16,349.68) scale(0.7945) rotate(0)"><rect width="20" height="10" fill="#fdf2f6"/></g><rect x="508.63" y="349.68" width="15.89" height="15.89" fill="#c7b8ff"/><g transform="translate(508.63,349.68) scale(0.7945) rotate(0)"><path d="M10 0H20L0 20V10L10 0Z" fill="#fefeff"/><path d="M20 10V20H10L20 10Z" fill="#fefeff"/></g><rect x="588.11" y="349.68" width="15.89" height="15.89" fill="#fefeff"/><path d="M 588.11 349.68 A 15.89 15.89 0 0 1  604 365.57 L 588.11 349.68 A 15.89 15.89 0 0 0 604 365.57" fill="#ccbfff"/><rect x="747.05" y="349.68" width="15.89" height="15.89" fill="#592fff"/><path d="M 747.05 349.68 A 15.89 15.89 0 0 1 762.9399999999999 365.57 L 747.05 365.57" fill="#fce8ef"/><rect x="826.53" y="349.68" width="15.89" height="15.89" fill="#fefeff"/><g transform="translate(826.53,349.68) scale(0.7945) rotate(0)"><rect width="20" height="2" fill="#fef7fa"/><rect y="4" width="20" height="2" fill="#fef7fa"/><rect y="8" width="20" height="2" fill="#fef7fa"/><rect y="12" width="20" height="2" fill="#fef7fa"/><rect y="16" width="20" height="2" fill="#fef7fa"/></g><rect x="906" y="349.68" width="15.89" height="15.89" fill="#ffffff"/><g transform="translate(906,349.68) scale(0.7945) rotate(0)"><path d="M10 5L5 0L0 5L5 10L0 15L5 20L10 15L15 20L20 15L15 10L20 5L15 0L10 5Z" fill="#ffffff"/></g><rect x="985.47" y="349.68" width="15.89" height="15.89" fill="#ffffff"/><path d="M 985.47 365.57 A 15.89 15.89 0 0 1  1001.36 349.68 L 1001.36 365.57" fill="#fffefe"/><rect x="1064.95" y="349.68" width="15.89" height="15.89" fill="#fdeff4"/><g transform="translate(1064.95,349.68) scale(0.7945) rotate(0)"><rect width="20" height="10" fill="#5327ff"/></g><rect x="111.26" y="429.16" width="15.89" height="15.89" fill="#fefeff"/><g transform="translate(111.26,429.16) scale(0.7945) rotate(0)"><path d="M10 0H20V10L10 20H0V10L10 0Z" fill="#ffffff"/></g><rect x="190.74" y="429.16" width="15.89" height="15.89" fill="#c7b9ff"/><g transform="translate(190.74,429.16) scale(0.7945) rotate(0)"><path d="M13 0H20V7L7 20H0V13L13 0Z" fill="#fdfdfe"/></g><rect x="270.21" y="429.16" width="15.89" height="15.89" fill="#fcfcfe"/><path d="M 270.21 445.05 A 15.89 15.89 0 0 1  286.09999999999997 429.16 L 270.21 445.05 A 15.89 15.89 0 0 0 286.09999999999997 429.16" fill="#fdeef3"/><rect x="349.68" y="429.16" width="15.89" height="15.89" fill="#d9d0ff"/><circle cx="357.625" cy="437.105" r="7.945" fill="#fffefe"/><rect x="429.16" y="429.16" width="15.89" height="15.89" fill="#cfc2ff"/><g transform="translate(429.16,429.16) scale(0.7945) rotate(0)"><path d="M10 0L20 10L10 20L0 10L10 0Z" fill="#9479ff"/></g><rect x="508.63" y="429.16" width="15.89" height="15.89" fill="#5b31ff"/><g transform="translate(508.63,429.16) scale(0.7945) rotate(0)"><path d="M10 0H20V10L10 20H0V10L10 0Z" fill="#ffffff"/></g><rect x="588.11" y="429.16" width="15.89" height="15.89" fill="#a68fff"/><path d="M 588.11 429.16 A 15.89 15.89 0 0 1 604 445.05 L 588.11 445.05" fill="#fdeef3"/><rect x="667.58" y="429.16" width="15.89" height="15.89" fill="#fefeff"/><path d="M 667.58 445.05 A 15.89 15.89 0 0 0 683.47 429.16 L 667.58 429.16" fill="#fefeff"/><rect x="747.05" y="429.16" width="15.89" height="15.89" fill="#fefeff"/><g transform="translate(747.05,429.16) scale(0.7945) rotate(0)"><path d="M10 0L20 10L10 20L0 10L10 0Z" fill="#fdf0f4"/></g><rect x="826.53" y="429.16" width="15.89" height="15.89" fill="#fdf2f6"/><path d="M 826.53 429.16 A 15.89 15.89 0 0 1  842.42 445.05 L 826.53 429.16 A 15.89 15.89 0 0 0 842.42 445.05" fill="#fefeff"/><rect x="906" y="429.16" width="15.89" height="15.89" fill="#fdfdfe"/><g transform="translate(906,429.16) scale(0.7945) rotate(0)"><path fill-rule="evenodd" clip-rule="evenodd" d="M10 20C15.5228 20 20 15.5228 20 10C20 4.47715 15.5228 0 10 0C4.47715 0 0 4.47715 0 10C0 15.5228 4.47715 20 10 20ZM10 17C13.866 17 17 13.866 17 10C17 6.13401 13.866 3 10 3C6.13401 3 3 6.13401 3 10C3 13.866 6.13401 17 10 17Z" fill="#dcd4ff"/></g><rect x="1064.95" y="429.16" width="15.89" height="15.89" fill="#9377ff"/><g transform="translate(1064.95,429.16) scale(0.7945) rotate(0)"><path d="M10 0H20V10L10 20H0V10L10 0Z" fill="#896aff"/></g><rect x="1144.42" y="429.16" width="15.89" height="15.89" fill="#fef9fa"/><g transform="translate(1144.42,429.16) scale(0.7945) rotate(0)"><path d="M10 0L20 10L10 20L0 10L10 0Z" fill="#fdfdfe"/></g><rect x="1223.89" y="429.16" width="15.89" height="15.89" fill="#582dff"/><path d="M 1223.89 429.16 A 15.89 15.89 0 0 1  1239.7800000000002 445.05 L 1223.89 429.16 A 15.89 15.89 0 0 0 1239.7800000000002 445.05" fill="#bfafff"/><rect x="1303.37" y="429.16" width="15.89" height="15.89" fill="#fcfcfe"/><g transform="translate(1303.37,429.16) scale(0.7945) rotate(0)"><path fill-rule="evenodd" clip-rule="evenodd" d="M10 20C15.5228 20 20 15.5228 20 10C20 4.47715 15.5228 0 10 0C4.47715 0 0 4.47715 0 10C0 15.5228 4.47715 20 10 20ZM10 17C13.866 17 17 13.866 17 10C17 6.13401 13.866 3 10 3C6.13401 3 3 6.13401 3 10C3 13.866 6.13401 17 10 17Z" fill="#e2daff"/></g><rect x="1462.32" y="429.16" width="15.89" height="15.89" fill="#fef4f7"/><g transform="translate(1462.32,429.16) scale(0.7945) rotate(0)"><path d="M5 0H10L5 5L0 10V5L5 0Z" fill="#fdedf2"/><path d="M20 15V20H15L20 15Z" fill="#fdedf2"/><path d="M20 5V10L15 15L10 20H5L20 5Z" fill="#fdedf2"/><path d="M15 0H20L5 15.0002L0 20.0002V15.0002L15 0Z" fill="#fdedf2"/></g><rect x="31.79" y="508.63" width="15.89" height="15.89" fill="#fcfcfe"/><g transform="translate(31.79,508.63) scale(0.7945) rotate(0)"><rect width="20" height="10" fill="#ffffff"/></g><rect x="111.26" y="508.63" width="15.89" height="15.89" fill="#fefeff"/><path d="M 111.26 524.52 A 15.89 15.89 0 0 1  127.15 508.63 L 111.26 524.52 A 15.89 15.89 0 0 0 127.15 508.63" fill="#d2c7ff"/><rect x="190.74" y="508.63" width="15.89" height="15.89" fill="#704bff"/><rect x="190.74" y="508.63" width="15.89" height="15.89" fill="#dfd7ff"/><rect x="270.21" y="508.63" width="15.89" height="15.89" fill="#f1edff"/><g transform="translate(270.21,508.63) scale(0.7945) rotate(0)"><path d="M10 5L5 0L0 5L5 10L0 15L5 20L10 15L15 20L20 15L15 10L20 5L15 0L10 5Z" fill="#fdfdfe"/></g><rect x="349.68" y="508.63" width="15.89" height="15.89" fill="#fefeff"/><g transform="translate(349.68,508.63) scale(0.7945) rotate(0)"><path fill-rule="evenodd" clip-rule="evenodd" d="M10 20C15.5228 20 20 15.5228 20 10C20 4.47715 15.5228 0 10 0C4.47715 0 0 4.47715 0 10C0 15.5228 4.47715 20 10 20ZM10 17C13.866 17 17 13.866 17 10C17 6.13401 13.866 3 10 3C6.13401 3 3 6.13401 3 10C3 13.866 6.13401 17 10 17Z" fill="#ffffff"/></g><rect x="588.11" y="508.63" width="15.89" height="15.89" fill="#fdfdfe"/><path d="M 588.11 508.63 A 15.89 15.89 0 0 1  604 524.52 L 588.11 508.63 A 15.89 15.89 0 0 0 604 524.52" fill="#6c47ff"/><rect x="667.58" y="508.63" width="15.89" height="15.89" fill="#fffdfe"/><g transform="translate(667.58,508.63) scale(0.7945) rotate(0)"><rect width="20" height="2" fill="#fdf2f6"/><rect y="4" width="20" height="2" fill="#fdf2f6"/><rect y="8" width="20" height="2" fill="#fdf2f6"/><rect y="12" width="20" height="2" fill="#fdf2f6"/><rect y="16" width="20" height="2" fill="#fdf2f6"/></g><rect x="747.05" y="508.63" width="15.89" height="15.89" fill="#fdeef3"/><g transform="translate(747.05,508.63) scale(0.7945) rotate(0)"><rect width="20" height="10" fill="#fdfdfe"/></g><rect x="826.53" y="508.63" width="15.89" height="15.89" fill="#a087ff"/><g transform="translate(826.53,508.63) scale(0.7945) rotate(0)"><path d="M10 0H20V10L10 20H0V10L10 0Z" fill="#ffffff"/></g><rect x="906" y="508.63" width="15.89" height="15.89" fill="#c2b2ff"/><g transform="translate(906,508.63) scale(0.7945) rotate(0)"><path d="M5 0H10L5 5L0 10V5L5 0Z" fill="#b6a4ff"/><path d="M20 15V20H15L20 15Z" fill="#b6a4ff"/><path d="M20 5V10L15 15L10 20H5L20 5Z" fill="#b6a4ff"/><path d="M15 0H20L5 15.0002L0 20.0002V15.0002L15 0Z" fill="#b6a4ff"/></g><rect x="985.47" y="508.63" width="15.89" height="15.89" fill="#a791ff"/><circle cx="993.4150000000001" cy="516.575" r="7.945" fill="#fef9fb"/><rect x="1144.42" y="508.63" width="15.89" height="15.89" fill="#fce7ee"/><g transform="translate(1144.42,508.63) scale(0.7945) rotate(0)"><path d="M10 0H20V10L10 20H0V10L10 0Z" fill="#fef8fa"/></g><rect x="1223.89" y="508.63" width="15.89" height="15.89" fill="#fdf0f4"/><g transform="translate(1223.89,508.63) scale(0.7945) rotate(0)"><path d="M10 0H20V10L10 20H0V10L10 0Z" fill="#fce9f0"/></g><rect x="1303.37" y="508.63" width="15.89" height="15.89" fill="#b9a7ff"/><g transform="translate(1303.37,508.63) scale(0.7945) rotate(0)"><path d="M10 0H20L0 20V10L10 0Z" fill="#fefafc"/><path d="M20 10V20H10L20 10Z" fill="#fefafc"/></g><rect x="1382.84" y="508.63" width="15.89" height="15.89" fill="#fdf1f5"/><g transform="translate(1382.84,508.63) scale(0.7945) rotate(0)"><path d="M10 0H20L0 20V10L10 0Z" fill="#fffbfc"/><path d="M20 10V20H10L20 10Z" fill="#fffbfc"/></g><rect x="1462.32" y="508.63" width="15.89" height="15.89" fill="#fefeff"/><g transform="translate(1462.32,508.63) scale(0.7945) rotate(0)"><rect width="20" height="10" fill="#a088ff"/></g><rect x="31.79" y="588.11" width="15.89" height="15.89" fill="#e0d8ff"/><g transform="translate(31.79,588.11) scale(0.7945) rotate(0)"><path d="M10 5L5 0L0 5L5 10L0 15L5 20L10 15L15 20L20 15L15 10L20 5L15 0L10 5Z" fill="#fce7ed"/></g><rect x="190.74" y="588.11" width="15.89" height="15.89" fill="#fef6f8"/><g transform="translate(190.74,588.11) scale(0.7945) rotate(0)"><path d="M13 0H20V7L7 20H0V13L13 0Z" fill="#fef5f8"/></g><rect x="349.68" y="588.11" width="15.89" height="15.89" fill="#fefafb"/><g transform="translate(349.68,588.11) scale(0.7945) rotate(0)"><path d="M10 0H20L0 20V10L10 0Z" fill="#6c47ff"/><path d="M20 10V20H10L20 10Z" fill="#6c47ff"/></g><rect x="429.16" y="588.11" width="15.89" height="15.89" fill="#ffffff"/><path d="M 429.16 588.11 A 15.89 15.89 0 0 0 445.05 604 L 445.05 588.11" fill="#fdfdfe"/><rect x="588.11" y="588.11" width="15.89" height="15.89" fill="#fffeff"/><g transform="translate(588.11,588.11) scale(0.7945) rotate(0)"><path d="M5 0H10L5 5L0 10V5L5 0Z" fill="#7855ff"/><path d="M20 15V20H15L20 15Z" fill="#7855ff"/><path d="M20 5V10L15 15L10 20H5L20 5Z" fill="#7855ff"/><path d="M15 0H20L5 15.0002L0 20.0002V15.0002L15 0Z" fill="#7855ff"/></g><rect x="667.58" y="588.11" width="15.89" height="15.89" fill="#fdfdfe"/><g transform="translate(667.58,588.11) scale(0.7945) rotate(0)"><rect width="20" height="2" fill="#fffeff"/><rect y="4" width="20" height="2" fill="#fffeff"/><rect y="8" width="20" height="2" fill="#fffeff"/><rect y="12" width="20" height="2" fill="#fffeff"/><rect y="16" width="20" height="2" fill="#fffeff"/></g><rect x="747.05" y="588.11" width="15.89" height="15.89" fill="#6b44ff"/><g transform="translate(747.05,588.11) scale(0.7945) rotate(0)"><rect width="20" height="2" fill="#fdfdfe"/><rect y="4" width="20" height="2" fill="#fdfdfe"/><rect y="8" width="20" height="2" fill="#fdfdfe"/><rect y="12" width="20" height="2" fill="#fdfdfe"/><rect y="16" width="20" height="2" fill="#fdfdfe"/></g><rect x="826.53" y="588.11" width="15.89" height="15.89" fill="#fcfcfe"/><g transform="translate(826.53,588.11) scale(0.7945) rotate(0)"><rect width="2" height="20" fill="#fefafc"/><rect x="4" width="2" height="20" fill="#fefafc"/><rect x="8" width="2" height="20" fill="#fefafc"/><rect x="12" width="2" height="20" fill="#fefafc"/><rect x="16" width="2" height="20" fill="#fefafc"/></g><rect x="985.47" y="588.11" width="15.89" height="15.89" fill="#e3dcff"/><rect x="985.47" y="588.11" width="15.89" height="15.89" fill="#fdfdfe"/><rect x="1064.95" y="588.11" width="15.89" height="15.89" fill="#fefeff"/><g transform="translate(1064.95,588.11) scale(0.7945) rotate(0)"><path fill-rule="evenodd" clip-rule="evenodd" d="M10 20C15.5228 20 20 15.5228 20 10C20 4.47715 15.5228 0 10 0C4.47715 0 0 4.47715 0 10C0 15.5228 4.47715 20 10 20ZM10 17C13.866 17 17 13.866 17 10C17 6.13401 13.866 3 10 3C6.13401 3 3 6.13401 3 10C3 13.866 6.13401 17 10 17Z" fill="#fffbfc"/></g><rect x="1223.89" y="588.11" width="15.89" height="15.89" fill="#fdfdfe"/><rect x="1223.89" y="588.11" width="15.89" height="15.89" fill="#fef8fa"/><rect x="1303.37" y="588.11" width="15.89" height="15.89" fill="#fce7ee"/><g transform="translate(1303.37,588.11) scale(0.7945) rotate(0)"><rect width="2" height="20" fill="#fefafb"/><rect x="4" width="2" height="20" fill="#fefafb"/><rect x="8" width="2" height="20" fill="#fefafb"/><rect x="12" width="2" height="20" fill="#fefafb"/><rect x="16" width="2" height="20" fill="#fefafb"/></g><rect x="1382.84" y="588.11" width="15.89" height="15.89" fill="#fffbfc"/><g transform="translate(1382.84,588.11) scale(0.7945) rotate(0)"><path d="M13 0H20V7L7 20H0V13L13 0Z" fill="#fdf2f5"/></g><rect x="1462.32" y="588.11" width="15.89" height="15.89" fill="#fefeff"/><rect x="1462.32" y="588.11" width="15.89" height="15.89" fill="#7552ff"/></g></svg>