<svg id="visual" viewBox="0 0 1400 4000" width="1400" height="4000" xmlns="http://www.w3.org/2000/svg" xmlns:xlink="http://www.w3.org/1999/xlink" version="1.1"><path d="M0 1321L127 1321L127 721L255 721L255 1081L382 1081L382 1001L509 1001L509 881L636 881L636 761L764 761L764 1721L891 1721L891 681L1018 681L1018 1041L1145 1041L1145 1601L1273 1601L1273 841L1400 841L1400 1121L1400 0L1400 0L1273 0L1273 0L1145 0L1145 0L1018 0L1018 0L891 0L891 0L764 0L764 0L636 0L636 0L509 0L509 0L382 0L382 0L255 0L255 0L127 0L127 0L0 0Z" fill="#fa7268"></path><path d="M0 1601L127 1601L127 1321L255 1321L255 1521L382 1521L382 1361L509 1361L509 1281L636 1281L636 1201L764 1201L764 2121L891 2121L891 1121L1018 1121L1018 1441L1145 1441L1145 1841L1273 1841L1273 1201L1400 1201L1400 1361L1400 1119L1400 839L1273 839L1273 1599L1145 1599L1145 1039L1018 1039L1018 679L891 679L891 1719L764 1719L764 759L636 759L636 879L509 879L509 999L382 999L382 1079L255 1079L255 719L127 719L127 1319L0 1319Z" fill="#ea5e66"></path><path d="M0 2921L127 2921L127 2561L255 2561L255 2801L382 2801L382 3121L509 3121L509 3281L636 3281L636 2481L764 2481L764 2841L891 2841L891 2841L1018 2841L1018 2641L1145 2641L1145 2761L1273 2761L1273 2801L1400 2801L1400 2601L1400 1359L1400 1199L1273 1199L1273 1839L1145 1839L1145 1439L1018 1439L1018 1119L891 1119L891 2119L764 2119L764 1199L636 1199L636 1279L509 1279L509 1359L382 1359L382 1519L255 1519L255 1319L127 1319L127 1599L0 1599Z" fill="#d84a64"></path><path d="M0 3281L127 3281L127 3361L255 3361L255 3401L382 3401L382 3441L509 3441L509 3561L636 3561L636 3161L764 3161L764 3681L891 3681L891 3521L1018 3521L1018 3361L1145 3361L1145 3241L1273 3241L1273 3081L1400 3081L1400 3201L1400 2599L1400 2799L1273 2799L1273 2759L1145 2759L1145 2639L1018 2639L1018 2839L891 2839L891 2839L764 2839L764 2479L636 2479L636 3279L509 3279L509 3119L382 3119L382 2799L255 2799L255 2559L127 2559L127 2919L0 2919Z" fill="#c53762"></path><path d="M0 4001L127 4001L127 4001L255 4001L255 4001L382 4001L382 4001L509 4001L509 4001L636 4001L636 4001L764 4001L764 4001L891 4001L891 4001L1018 4001L1018 4001L1145 4001L1145 4001L1273 4001L1273 4001L1400 4001L1400 4001L1400 3199L1400 3079L1273 3079L1273 3239L1145 3239L1145 3359L1018 3359L1018 3519L891 3519L891 3679L764 3679L764 3159L636 3159L636 3559L509 3559L509 3439L382 3439L382 3399L255 3399L255 3359L127 3359L127 3279L0 3279Z" fill="#b0235f"></path></svg>